<?xml version="1.0" encoding="utf-8"?>
<!-- Generator: Adobe Illustrator 24.0.1, SVG Export Plug-In . SVG Version: 6.00 Build 0)  -->
<svg version="1.1" id="Layer_1" xmlns="http://www.w3.org/2000/svg" xmlns:xlink="http://www.w3.org/1999/xlink" x="0px" y="0px"
	 viewBox="0 0 512 512" style="enable-background:new 0 0 512 512;" xml:space="preserve">
<style type="text/css">
	.st0{fill:#0E0D0D;}
	.st1{fill:#FCFCFC;}
</style>
<g id="MfPjX2.tif">
	<g>
		<path class="st0" d="M47.59,20.57c1,0,2,0,2.99,0c1.54,1.98,3.92,0.87,5.88,1.59c10.58,3.88,16.11,14.82,13.58,27.25
			C67.62,61.34,61.82,71.7,55.27,81.7c-6.59,10.07-16.06,14.65-28.01,13.33c-2.74-0.3-3.36,0.53-4.13,2.67
			c-7.72,21.24-9.96,42.85-4.35,64.94c3.09,12.17,8.04,23.55,15.39,34.16c16.19-43.95,58.08-76.57,112.26-75.53
			c36.71,0.7,73.46-0.16,110.18,0.36c8.5,0.12,14.55-2.55,20.03-8.45c11.5-12.37,25.8-16.18,42.13-12.97
			c2.86,0.56,3.23-0.44,3.29-2.93c0.16-6.47,0.56-12.94,0.98-19.4c0.32-4.88,1.81-9.42,4.68-13.42
			c8.06-11.27,23.32-11.43,33.43-0.08c4.74,5.32,8.88,11.17,13.3,16.77c3.47,4.4,5.25,4.35,8.82-0.15
			c4.74-5.98,9.2-12.23,14.39-17.8c5.8-6.23,13.24-8.93,21.7-6.36c8.23,2.5,12.76,8.64,14.4,16.85c1.57,7.83,1.26,15.85,1.79,23.79
			c0.15,2.23,0.31,3.3,3.02,2.75c16.74-3.34,31.11,0.91,42.96,13.45c5.07,5.36,10.92,9.89,18.33,11.35
			c4.97,0.97,8.87,3.04,11.64,7.24c0,3.32,0,6.65,0,9.97c-3.87,9.8-10.12,17.59-19.19,23.1c-5.55,3.37-11.32,6.2-17.59,7.93
			c-2.71,0.75-4.21,1.73-4.49,5.12c-0.72,8.58-2.48,17.07-3.26,25.65c-0.75,8.24-2.87,16.61-1.27,24.76
			c2.25,11.46,0.02,21.65-5.75,31.42c-5.99,10.14-13.84,18.73-22.87,26.1c-5.78,4.73-11.5,8.94-9.58,17.64
			c0.13,0.59-0.23,1.29-0.35,1.95c-3.09,17.34-13.82,28.53-29.1,36.02c-2.27,1.11-4.08,2.06-4.33,5.24
			c-1.44,18.37-3.02,36.72-4.91,55.05c-0.73,7.03-0.22,13.35,4.52,19.02c1.87,2.24,3.23,5.05,4.33,7.79
			c4.74,11.78-1.94,22.76-14.64,23.33c-11.78,0.53-23.6,0.48-35.4,0.21c-9.74-0.23-16.87-6.94-17.73-16.82
			c-2.17-25.14-4.07-50.31-5.86-75.48c-0.26-3.6-0.8-5.46-5.01-5.13c-4.11,0.33-8.31-0.08-12.44-0.4c-2.56-0.2-3.43,0.64-3.64,3.23
			c-1.19,14.56-2.28,29.13-3.99,43.63c-0.9,7.6-0.03,14.31,4.94,20.34c1.45,1.76,2.5,3.92,3.46,6.02
			c5.56,12.26-1.11,23.82-14.56,24.42c-11.78,0.53-23.6,0.45-35.39,0.15c-9.01-0.23-15.84-6.73-17.28-15.67
			c-0.5-3.11-0.71-6.26-0.95-9.41c-1.43-19.04-2.87-38.08-4.2-57.13c-0.2-2.89-1.14-3.9-4.22-3.84c-11.3,0.21-22.61,0.16-33.91,0.02
			c-2.66-0.03-3.57,0.55-3.79,3.44c-1.01,13.07-2.31,26.12-3.62,39.17c-0.23,2.27,0.17,4.11,1.4,6.06
			c2.82,4.48,5.84,8.93,7.92,13.76c4.99,11.62-1.84,22.85-14.43,23.41c-11.94,0.54-23.93,0.47-35.89,0.19
			c-8.66-0.2-15.48-6.09-16.99-14.71c-1.19-6.84-1.46-13.85-2.02-20.79c-1.27-15.72-2.48-31.45-3.69-47.17
			c-0.14-1.88-0.07-3.47-2.89-3.37c-6.48,0.21-12.97,0.13-19.45,0.03c-2.14-0.03-2.83,0.72-2.98,2.84
			c-0.91,12.42-1.86,24.83-3.02,37.23c-0.41,4.36,0.53,8.03,3.04,11.63c2.45,3.51,4.85,7.12,6.37,11.2
			c4.35,11.68-2.22,22.37-14.68,22.93c-11.94,0.53-23.94,0.5-35.89,0.18c-9.52-0.26-16.81-7.67-17.58-17.1
			c-1.36-16.55-2.75-33.09-3.89-49.66c-1.99-28.83-4.23-57.64-5.56-86.5c-1.21-26.2-2.97-52.44-0.49-78.67
			c0.32-3.42-0.62-5.91-2.57-8.6c-16.88-23.18-26.2-48.86-25.48-77.85c0.37-15.08,3.57-29.53,8.91-43.57
			c0.67-1.75,1.45-3.21-0.14-5.38C0.01,72.33,0.2,60.56,9.82,47.83C19.6,34.9,31.55,24.89,47.59,20.57z M412.12,302.88
			c-29.48,12.16-57.2,7.72-80.15-7.74c-2.69-1.81-3.11-0.36-4.05,1.52c-5.57,11.17-13.79,19.62-26.04,22.99
			c-21.11,5.8-39.03-0.73-53.81-15.97c-11.94-12.31-14.73-29.25-3.09-44.19c3.72-4.78,5.29-10.57,6.28-16.53
			c1.56-9.43,0.65-18.9,0.87-28.36c0.42-18.12,8.75-28.37,26.4-32.14c2.43-0.52,4.92-0.74,7.38-1.13c0.91-0.14,2.25,0.04,1.94-1.49
			c-0.55-2.71-0.05-5.77-4.18-6.72c-7.81-1.79-14.96-5.29-21.5-9.94c-8.11-5.76-14.3-12.99-15.84-23.14
			c-0.44-2.93-1.47-3.39-4.03-3.38c-15.79,0.09-31.59,0.11-47.38-0.01c-2.88-0.02-4.1,0.46-3.92,3.78
			c0.47,8.46,0.35,16.93-0.74,25.37c-2.14,16.57-7.83,30.84-24.15,38.51c-5.82,2.74-10.41,1.84-12.41-2.58
			c-1.95-4.32-0.01-8.3,5.66-10.9c6.42-2.94,10.75-7.7,12.94-14.31c4.04-12.19,4.23-24.76,3.3-37.42c-0.15-2.02-1.05-2.43-2.84-2.41
			c-14.62,0.2-29.34-1.06-43.85,0.78c-52.11,6.61-89.45,52.48-86.05,105.08c0.1,1.52,0.06,2.78,1.91,3.56
			c11.51,4.86,23.37,7.79,35.86,5.53c10.06-1.82,16.67-8.35,20.87-17.47c4.49-9.75,10.32-18.56,18.77-25.36
			c3.52-2.83,7.99-2.35,10.68,0.84c2.49,2.95,2.48,7.59-0.67,10.31c-7.09,6.12-11.67,13.87-15.81,22.08
			c-9.5,18.89-27.58,28.05-48.56,25.28c-7.58-1-14.9-2.87-22.36-5.25c-0.06,1.22-0.17,2.2-0.16,3.17
			c0.51,46.37,4.72,92.53,8.07,138.74c0.2,2.77,1.49,2.72,3.46,2.71c7.98-0.05,15.97-0.21,23.94,0.07c3.33,0.11,3.6-1.25,3.8-4.02
			c1.09-14.73,2.34-29.46,3.72-44.17c0.52-5.58,3.52-8.24,8.85-7.75c13.45,1.22,26.91,0.52,40.37,0.57
			c34.41,0.15,68.83,0.04,103.24,0.06c7.86,0,9.8,1.7,10.42,9.29c1.16,14.06,2.28,28.13,3.28,42.21c0.2,2.89,1.1,3.93,4.18,3.81
			c7.14-0.27,14.32-0.42,21.44,0.03c4.73,0.3,5.7-1.47,6.01-5.81c1.26-17.21,2.81-34.41,4.55-51.58c0.89-8.74,2.51-9.82,11.55-9.75
			c19.43,0.15,38.9,1.03,58.22-1.92c14.15-2.16,28.05-5.16,40.06-13.59C405.71,319.09,410.71,312.57,412.12,302.88z M373.51,99.3
			c-20.29,0.53-41.71,10.5-57.31,31.42c-10.39,13.93-16.47,29.38-13.34,47.4c1.5,8.64,3.04,17.32,3.2,26.15
			c0.07,3.86,1.72,2.4,3.56,1.24c15.57-9.77,33.06-13.19,50.95-15.15c4.1-0.45,7.64,2.56,8.22,6.39c0.62,4.05-1.58,7.35-5.86,8.48
			c-1.75,0.46-3.59,0.57-5.4,0.8c-13.71,1.76-27.11,4.58-39.12,11.89c-14.22,8.66-17.19,19.34-8.53,33.5
			c10.19,16.66,24.35,29.21,42.1,37.54c7.73,3.63,15.91,5.7,24.45,5.86c27.89,0.52,61.19-20.87,72.58-46.47
			c4.83-10.86,2.76-19.5-6.57-26.86c-3.92-3.09-8.28-5.47-12.88-7.41c-10.3-4.35-21.11-6.7-32.17-8c-6.1-0.72-9.17-3.56-8.77-8.52
			c0.4-4.92,3.73-7.16,10.22-6.47c17.63,1.88,34.59,5.93,49.6,15.95c2.2,1.47,3.01,1.33,3.24-1.51c0.4-4.79,1.18-9.54,1.72-14.31
			c1.29-11.5,3.71-22.96,0.7-34.59C445.48,123.28,414.3,99.38,373.51,99.3z M292.19,221.04c-0.46-6.63-0.86-11.92-1.18-17.22
			c-0.47-7.74-0.63-7.9-8.28-6.71c-10.24,1.59-14.19,5.31-15.15,15.76c-0.68,7.41-0.36,14.92-0.44,22.38
			c-0.14,12.74-3.35,24.5-10.97,34.9c-4.57,6.24-4.28,12.67-0.23,18.98c5.36,8.35,13.23,13.22,22.64,15.87
			c16.83,4.74,30.34-1.81,37.05-17.89c1.06-2.55,0.99-4.26-1.26-6.34c-8.09-7.46-15.11-15.83-19.97-25.81
			c-4.18-8.59-5.94-17.58-3.2-26.96C292.03,225.22,292.37,222.53,292.19,221.04z M358.2,406.66c3.99,0,7.98-0.13,11.97,0.05
			c2.57,0.12,3.44-0.82,3.64-3.35c1.32-16.71,2.71-33.41,4.25-50.1c0.29-3.15-0.1-4.11-3.55-3.21c-10.14,2.62-20.54,3.88-30.97,4.37
			c-3.92,0.19-4.96,1.17-4.61,5.03c1.19,13.06,2.07,26.14,3.05,39.22c0.6,7.99,0.59,7.99,8.74,7.99
			C353.22,406.66,355.71,406.66,358.2,406.66z M159.88,366.57c-4.99,0-9.98,0.14-14.96-0.05c-2.82-0.11-4.1,0.24-3.78,3.68
			c1.01,10.91,1.7,21.85,2.3,32.79c0.17,3.12,1.43,3.82,4.33,3.74c7.64-0.19,15.3-0.25,22.94,0.02c3.1,0.11,3.99-1,4.22-3.82
			c0.94-11.41,1.97-22.82,3.13-34.21c0.26-2.59-1.31-2.13-2.71-2.14C170.19,366.55,165.03,366.57,159.88,366.57z M55.41,44.96
			c0.37-6.92-3.41-10.02-9.15-7.88c-12.2,4.57-20.73,13.54-27.14,24.48c-3.16,5.4-0.98,12.09,4.09,15.92
			c4.87,3.68,12.4,3.85,16.4-0.78C47.7,67.31,53.29,56.47,55.41,44.96z M448.7,114.29c0.24,2.19,1.79,3.08,2.77,4.32
			c8.34,10.51,14.84,22.07,17.42,35.25c1.12,5.73,3.3,4.67,6.76,3.1c4.69-2.12,9.24-4.49,13.17-7.87c2.4-2.06,4.54-4.34,5.96-7.24
			c0.55-1.12,1.27-2.07-0.62-2.58c-11.21-3-19.12-10.83-27.26-18.41C461.9,116.19,455.68,114.31,448.7,114.29z M309.78,114.31
			c-9.32-0.04-16.2,3.1-21.99,9.03c-6.53,6.7-13.71,12.62-22.8,15.38c-3.69,1.12-2.98,2.43-1.41,4.66
			c5.41,7.72,13.46,11.45,21.91,14.59c2.19,0.81,2.34-0.54,2.66-2.22c1.06-5.53,2.95-10.82,5.19-15.98
			C297.28,130.68,302.72,122.48,309.78,114.31z M165.94,437.49c4.98,0,9.96,0.05,14.93-0.01c4.97-0.06,5.27-0.63,2.73-5.07
			c-1.23-2.15-2.8-4.14-3.84-6.37c-1.45-3.09-3.51-4.25-7-4.06c-5.96,0.31-11.94,0.09-17.92,0.09c-10.87,0-10.76-0.02-8.94,10.86
			c0.58,3.49,2.1,4.79,5.6,4.62C156.31,437.33,161.13,437.5,165.94,437.49z M274.77,437.5c3.16,0,6.32,0.16,9.46-0.05
			c3.2-0.21,7.7,1.63,9.28-1.08c1.64-2.83-2.46-5.64-3.75-8.59c-1.91-4.36-4.83-6.43-9.99-5.84c-5.08,0.59-10.28,0.13-15.43,0.13
			c-11.1,0-11.03-0.01-9.4,11.19c0.44,3.03,1.79,4.35,4.88,4.27C264.8,437.4,269.78,437.5,274.77,437.5z M364.65,437.49
			c5.15,0,10.3-0.13,15.45,0.04c4.3,0.14,4.47-1.64,2.59-4.72c-1.38-2.26-2.87-4.46-4.06-6.82c-1.5-2.97-3.54-4.23-7.04-4.01
			c-5.63,0.34-11.29,0.09-16.94,0.09c-11.47,0-11.41-0.01-9.85,11.21c0.42,3.02,1.84,4.33,4.91,4.25
			C354.68,437.4,359.66,437.5,364.65,437.49z M73.59,437.49c5.14,0,10.28-0.11,15.41,0.04c4.23,0.12,4.52-1.6,2.61-4.72
			c-1.38-2.25-2.91-4.44-4.04-6.81c-1.46-3.09-3.57-4.18-7.02-4c-5.78,0.3-11.59,0.08-17.39,0.08c-11.03,0-11.02,0-9.56,10.77
			c0.41,2.99,1.61,4.84,5.09,4.7C63.64,437.35,68.62,437.5,73.59,437.49z M398.47,86.09c7.68,1.68,14.43,4.26,21.5,7.26
			c-0.45-5.7,0.16-11-0.99-16.24c-0.56-2.54-1.32-4.91-4.08-5.68c-2.71-0.76-4.94,0.56-6.61,2.51
			C405.07,77.71,402.04,81.64,398.47,86.09z M358.94,86.05c-2.64-3.4-5.05-6.53-7.49-9.64c-0.72-0.91-1.48-1.8-2.33-2.59
			c-4.75-4.47-8.93-3.25-10.44,3.05c-1.28,5.33-0.7,10.73-0.93,16.57C344.79,90.18,351.6,87.92,358.94,86.05z"/>
		<path class="st1" d="M412.12,302.88c-1.41,9.69-6.41,16.21-13.58,21.25c-12.01,8.43-25.91,11.43-40.06,13.59
			c-19.33,2.95-38.79,2.07-58.22,1.92c-9.04-0.07-10.67,1.01-11.55,9.75c-1.74,17.17-3.29,34.37-4.55,51.58
			c-0.32,4.34-1.29,6.1-6.01,5.81c-7.12-0.45-14.3-0.3-21.44-0.03c-3.08,0.11-3.98-0.92-4.18-3.81c-1-14.08-2.13-28.14-3.28-42.21
			c-0.62-7.59-2.56-9.28-10.42-9.29c-34.41-0.02-68.83,0.09-103.24-0.06c-13.45-0.06-26.92,0.64-40.37-0.57
			c-5.33-0.48-8.32,2.17-8.85,7.75c-1.38,14.71-2.63,29.43-3.72,44.17c-0.2,2.77-0.47,4.13-3.8,4.02
			c-7.97-0.27-15.96-0.12-23.94-0.07c-1.97,0.01-3.26,0.07-3.46-2.71c-3.35-46.21-7.56-92.37-8.07-138.74
			c-0.01-0.97,0.09-1.95,0.16-3.17c7.45,2.39,14.77,4.25,22.36,5.25c20.98,2.78,39.06-6.38,48.56-25.28
			c4.13-8.22,8.72-15.96,15.81-22.08c3.15-2.72,3.16-7.36,0.67-10.31c-2.69-3.19-7.16-3.67-10.68-0.84
			c-8.45,6.8-14.28,15.61-18.77,25.36c-4.2,9.12-10.81,15.65-20.87,17.47c-12.48,2.26-24.35-0.67-35.86-5.53
			c-1.85-0.78-1.81-2.04-1.91-3.56c-3.4-52.6,33.94-98.47,86.05-105.08c14.52-1.84,29.23-0.58,43.85-0.78
			c1.79-0.02,2.7,0.39,2.84,2.41c0.93,12.66,0.75,25.22-3.3,37.42c-2.19,6.61-6.52,11.37-12.94,14.31c-5.67,2.6-7.61,6.58-5.66,10.9
			c2,4.43,6.59,5.32,12.41,2.58c16.33-7.67,22.01-21.94,24.15-38.51c1.09-8.44,1.21-16.91,0.74-25.37c-0.18-3.32,1.04-3.8,3.92-3.78
			c15.79,0.12,31.59,0.1,47.38,0.01c2.56-0.02,3.59,0.45,4.03,3.38c1.53,10.15,7.72,17.38,15.84,23.14
			c6.54,4.64,13.7,8.15,21.5,9.94c4.13,0.95,3.63,4.01,4.18,6.72c0.31,1.53-1.03,1.35-1.94,1.49c-2.46,0.38-4.95,0.61-7.38,1.13
			c-17.65,3.77-25.98,14.02-26.4,32.14c-0.22,9.45,0.69,18.93-0.87,28.36c-0.99,5.97-2.56,11.76-6.28,16.53
			c-11.63,14.95-8.85,31.88,3.09,44.19c14.78,15.24,32.7,21.77,53.81,15.97c12.25-3.36,20.47-11.82,26.04-22.99
			c0.94-1.89,1.36-3.33,4.05-1.52C354.92,310.61,382.64,315.04,412.12,302.88z M109.41,287.3c-0.02,17.69,13.87,34.83,31.21,38.26
			c12.49,2.47,23.47-0.78,30.84-11.26c6.86-9.77,15.47-16.64,26.33-21.12c2.43-1,4.76-2.37,6.95-3.83
			c10.62-7.09,16-20.66,12.88-32.64c-2.97-11.39-10.25-18.82-21.58-21.85c-11.29-3.01-21.23,0.17-28.87,8.73
			c-4.11,4.6-8.07,5.85-14.15,5.19C129.61,246.23,109.44,264.35,109.41,287.3z"/>
		<path class="st1" d="M373.51,99.3c40.8,0.08,71.98,23.99,80.59,57.32c3.01,11.63,0.59,23.08-0.7,34.59
			c-0.54,4.78-1.32,9.53-1.72,14.31c-0.24,2.84-1.04,2.98-3.24,1.51c-15.01-10.02-31.97-14.07-49.6-15.95
			c-6.48-0.69-9.82,1.55-10.22,6.47c-0.4,4.96,2.67,7.81,8.77,8.52c11.05,1.3,21.86,3.65,32.17,8c4.6,1.94,8.97,4.31,12.88,7.41
			c9.32,7.37,11.4,16,6.57,26.86c-11.38,25.6-44.68,46.99-72.58,46.47c-8.54-0.16-16.72-2.23-24.45-5.86
			c-17.75-8.34-31.91-20.88-42.1-37.54c-8.66-14.16-5.69-24.84,8.53-33.5c12-7.31,25.41-10.13,39.12-11.89
			c1.81-0.23,3.65-0.34,5.4-0.8c4.28-1.13,6.48-4.43,5.86-8.48c-0.58-3.83-4.12-6.83-8.22-6.39c-17.89,1.96-35.38,5.39-50.95,15.15
			c-1.84,1.15-3.49,2.62-3.56-1.24c-0.16-8.82-1.7-17.5-3.2-26.15c-3.13-18.01,2.95-33.47,13.34-47.4
			C331.8,109.8,353.22,99.83,373.51,99.3z M411.59,246.53c0.01,0,0.03,0,0.04,0c0-1.99,0.15-4-0.03-5.98
			c-0.39-4.42-3.78-7.58-7.82-7.47c-3.85,0.1-7.04,3.13-7.25,7.4c-0.22,4.3-0.2,8.64,0.05,12.94c0.25,4.3,2.96,6.55,7.13,6.87
			c3.91,0.3,7.35-2.67,7.84-6.8C411.81,251.2,411.59,248.85,411.59,246.53z M361.02,246.86c0.01,0,0.02,0,0.02,0
			c0-2.16,0.14-4.33-0.03-6.47c-0.33-4.24-3.44-7.25-7.32-7.31c-3.86-0.05-7.4,2.95-7.65,7.06c-0.27,4.47-0.3,8.98,0.03,13.45
			c0.3,4.07,3.98,7.06,7.89,6.7c4.15-0.38,6.74-2.63,7.03-6.96C361.14,251.19,361.02,249.02,361.02,246.86z M338.12,165.51
			c-0.01,6.39,2.22,9.95,6.76,10.51c3.3,0.41,6.15-0.93,7.44-3.84c2-4.52,2.25-9.37-0.41-13.8c-1.71-2.85-4.7-3.82-7.81-2.97
			C339.03,156.78,337.91,160.83,338.12,165.51z M419.47,165.49c0.08-3.6-0.33-7.06-3.76-9.13c-3.41-2.05-6.71-1.57-9.48,1.24
			c-3.13,3.17-3.25,12.52-0.16,15.82c2.66,2.84,5.87,3.64,9.41,1.57C419.15,172.84,419.57,169.26,419.47,165.49z"/>
		<path class="st1" d="M292.19,221.04c0.18,1.49-0.16,4.18-0.98,6.97c-2.74,9.38-0.98,18.36,3.2,26.96
			c4.85,9.98,11.88,18.35,19.97,25.81c2.25,2.08,2.32,3.79,1.26,6.34c-6.72,16.08-20.22,22.63-37.05,17.89
			c-9.41-2.65-17.28-7.52-22.64-15.87c-4.05-6.31-4.34-12.74,0.23-18.98c7.62-10.4,10.83-22.16,10.97-34.9
			c0.08-7.46-0.24-14.97,0.44-22.38c0.96-10.45,4.91-14.17,15.15-15.76c7.65-1.19,7.82-1.03,8.28,6.71
			C291.33,209.12,291.73,214.41,292.19,221.04z"/>
		<path class="st1" d="M358.2,406.66c-2.49,0-4.99,0-7.48,0c-8.16,0-8.15,0-8.74-7.99c-0.98-13.08-1.86-26.16-3.05-39.22
			c-0.35-3.86,0.68-4.85,4.61-5.03c10.43-0.5,20.83-1.75,30.97-4.37c3.46-0.89,3.84,0.06,3.55,3.21
			c-1.54,16.69-2.93,33.39-4.25,50.1c-0.2,2.53-1.07,3.47-3.64,3.35C366.19,406.53,362.19,406.66,358.2,406.66z"/>
		<path class="st1" d="M159.88,366.57c5.15,0,10.31-0.01,15.46,0.01c1.41,0.01,2.98-0.45,2.71,2.14
			c-1.15,11.39-2.18,22.8-3.13,34.21c-0.23,2.82-1.12,3.93-4.22,3.82c-7.64-0.27-15.29-0.22-22.94-0.02
			c-2.9,0.07-4.16-0.63-4.33-3.74c-0.6-10.94-1.29-21.88-2.3-32.79c-0.32-3.44,0.97-3.79,3.78-3.68
			C149.9,366.7,154.89,366.57,159.88,366.57z"/>
		<path class="st1" d="M55.41,44.96C53.29,56.47,47.7,67.31,39.6,76.7c-4,4.64-11.53,4.46-16.4,0.78
			c-5.06-3.83-7.25-10.52-4.09-15.92c6.41-10.93,14.94-19.91,27.14-24.48C52,34.93,55.78,38.04,55.41,44.96z"/>
		<path class="st1" d="M448.7,114.29c6.98,0.02,13.2,1.9,18.2,6.56c8.14,7.58,16.05,15.41,27.26,18.41
			c1.89,0.51,1.17,1.46,0.62,2.58c-1.42,2.89-3.56,5.17-5.96,7.24c-3.93,3.38-8.47,5.75-13.17,7.87c-3.46,1.56-5.64,2.62-6.76-3.1
			c-2.58-13.17-9.08-24.74-17.42-35.25C450.5,117.37,448.94,116.48,448.7,114.29z"/>
		<path class="st1" d="M309.78,114.31c-7.05,8.17-12.49,16.37-16.45,25.47c-2.24,5.15-4.12,10.45-5.19,15.98
			c-0.32,1.68-0.47,3.03-2.66,2.22c-8.45-3.14-16.5-6.87-21.91-14.59c-1.57-2.24-2.27-3.55,1.41-4.66
			c9.1-2.76,16.27-8.68,22.8-15.38C293.57,117.41,300.46,114.27,309.78,114.31z"/>
		<path class="st1" d="M165.94,437.5c-4.81,0-9.63-0.17-14.43,0.06c-3.5,0.17-5.02-1.13-5.6-4.62c-1.82-10.88-1.94-10.86,8.94-10.86
			c5.97,0,11.96,0.23,17.92-0.09c3.49-0.18,5.56,0.97,7,4.06c1.04,2.23,2.61,4.22,3.84,6.37c2.54,4.43,2.24,5.01-2.73,5.07
			C175.9,437.54,170.92,437.49,165.94,437.5z"/>
		<path class="st1" d="M274.77,437.5c-4.98,0-9.97-0.1-14.95,0.03c-3.09,0.08-4.44-1.24-4.88-4.27c-1.63-11.2-1.7-11.19,9.4-11.19
			c5.15,0,10.35,0.46,15.43-0.13c5.16-0.6,8.08,1.47,9.99,5.84c1.29,2.95,5.39,5.76,3.75,8.59c-1.58,2.72-6.08,0.87-9.28,1.08
			C281.09,437.66,277.92,437.5,274.77,437.5z"/>
		<path class="st1" d="M364.65,437.49c-4.98,0-9.97-0.09-14.95,0.04c-3.07,0.08-4.49-1.23-4.91-4.25
			c-1.56-11.22-1.61-11.21,9.85-11.21c5.65,0,11.31,0.25,16.94-0.09c3.5-0.21,5.54,1.04,7.04,4.01c1.19,2.35,2.69,4.56,4.06,6.82
			c1.88,3.08,1.7,4.86-2.59,4.72C374.95,437.37,369.8,437.49,364.65,437.49z"/>
		<path class="st1" d="M73.59,437.49c-4.97,0-9.95-0.14-14.91,0.05c-3.48,0.13-4.68-1.71-5.09-4.7
			c-1.46-10.77-1.47-10.77,9.56-10.77c5.8,0,11.61,0.22,17.39-0.08c3.45-0.18,5.56,0.92,7.02,4c1.12,2.38,2.66,4.56,4.04,6.81
			c1.91,3.12,1.62,4.85-2.61,4.72C83.86,437.38,78.73,437.49,73.59,437.49z"/>
		<path class="st1" d="M398.47,86.09c3.58-4.45,6.6-8.38,9.82-12.15c1.67-1.95,3.89-3.28,6.61-2.51c2.76,0.78,3.52,3.14,4.08,5.68
			c1.15,5.24,0.54,10.54,0.99,16.24C412.9,90.35,406.14,87.77,398.47,86.09z"/>
		<path class="st1" d="M358.94,86.05c-7.34,1.87-14.15,4.13-21.19,7.39c0.23-5.84-0.35-11.24,0.93-16.57
			c1.51-6.29,5.69-7.51,10.44-3.05c0.84,0.79,1.61,1.68,2.33,2.59C353.89,79.51,356.3,82.65,358.94,86.05z"/>
		<path class="st0" d="M109.41,287.3c0.02-22.95,20.19-41.07,43.61-38.54c6.08,0.66,10.04-0.59,14.15-5.19
			c7.64-8.56,17.59-11.74,28.87-8.73c11.33,3.03,18.61,10.46,21.58,21.85c3.13,11.98-2.26,25.56-12.88,32.64
			c-2.2,1.47-4.52,2.83-6.95,3.83c-10.86,4.48-19.47,11.35-26.33,21.12c-7.37,10.49-18.34,13.74-30.84,11.26
			C123.29,322.13,109.4,304.99,109.41,287.3z M147.71,310.97c5.46,0.5,9.73-2.42,12.81-7.11c6.66-10.13,15.48-17.55,26.6-22.36
			c3.17-1.37,6.32-2.93,9.21-4.81c7.53-4.9,9.16-15.33,3.65-22.22c-5.49-6.88-14.56-7.35-21.45-1.01c-1.95,1.79-3.61,3.9-5.52,5.73
			c-4.7,4.51-10.04,6.62-16.75,5.12c-3.17-0.71-6.62-0.61-9.9-0.36c-12.22,0.92-22.44,12.21-21.94,24
			C124.91,299.51,135.97,310.68,147.71,310.97z"/>
		<path class="st0" d="M411.59,246.53c0,2.32,0.22,4.68-0.05,6.97c-0.49,4.13-3.92,7.1-7.84,6.8c-4.17-0.32-6.88-2.57-7.13-6.87
			c-0.25-4.3-0.27-8.64-0.05-12.94c0.22-4.27,3.4-7.29,7.25-7.4c4.04-0.11,7.42,3.04,7.82,7.47c0.18,1.98,0.03,3.98,0.03,5.98
			C411.62,246.53,411.61,246.53,411.59,246.53z"/>
		<path class="st0" d="M361.02,246.86c0,2.16,0.12,4.32-0.03,6.47c-0.29,4.33-2.88,6.58-7.03,6.96c-3.9,0.35-7.59-2.63-7.89-6.7
			c-0.33-4.46-0.3-8.98-0.03-13.45c0.25-4.1,3.79-7.11,7.65-7.06c3.88,0.05,6.99,3.07,7.32,7.31c0.17,2.15,0.03,4.32,0.03,6.47
			C361.04,246.86,361.03,246.86,361.02,246.86z"/>
		<path class="st0" d="M338.13,165.51c-0.22-4.69,0.9-8.73,5.98-10.11c3.1-0.85,6.1,0.12,7.81,2.97c2.66,4.43,2.41,9.28,0.41,13.8
			c-1.29,2.91-4.14,4.25-7.44,3.84C340.35,175.46,338.11,171.9,338.13,165.51z"/>
		<path class="st0" d="M419.46,165.49c0.11,3.77-0.31,7.35-3.99,9.5c-3.54,2.06-6.75,1.27-9.41-1.57
			c-3.08-3.3-2.97-12.65,0.16-15.82c2.77-2.81,6.07-3.29,9.48-1.24C419.14,158.43,419.55,161.89,419.46,165.49z"/>
		<path class="st1" d="M147.71,310.97c-11.74-0.28-22.8-11.46-23.29-23.03c-0.5-11.79,9.72-23.08,21.94-24
			c3.28-0.25,6.73-0.35,9.9,0.36c6.71,1.51,12.05-0.61,16.75-5.12c1.91-1.83,3.57-3.94,5.52-5.73c6.89-6.33,15.96-5.87,21.45,1.01
			c5.5,6.89,3.88,17.32-3.65,22.22c-2.89,1.88-6.04,3.43-9.21,4.81c-11.11,4.82-19.94,12.23-26.6,22.36
			C157.44,308.55,153.17,311.47,147.71,310.97z"/>
	</g>
</g>
</svg>
