<?xml version="1.0" encoding="utf-8"?>
<!-- Generator: Adobe Illustrator 24.0.1, SVG Export Plug-In . SVG Version: 6.00 Build 0)  -->
<svg version="1.1" id="Layer_1" xmlns="http://www.w3.org/2000/svg" xmlns:xlink="http://www.w3.org/1999/xlink" x="0px" y="0px"
	 viewBox="0 0 512 512" style="enable-background:new 0 0 512 512;" xml:space="preserve">
<style type="text/css">
	.st0{fill:#0C0B0B;}
	.st1{fill:#FAF9F9;}
	.st2{fill:#FDFDFD;}
</style>
<g id="_x37_Z50Pb.tif">
	<g>
		<path class="st0" d="M28.6,357.6c1.19-5.06,2.28-10.14,3.58-15.16c5.74-22.16,16.95-35.67,36.93-44.5
			c-5.43-4.34-10.73-8.69-16.17-12.87c-4.66-3.59-6.93-8.2-5.45-13.9c1.42-5.48,5.39-8.32,11.06-9.4c12.9-2.44,25.8-4.4,38.99-4.25
			c14.81,0.17,27.6,5.32,38.41,15.26c2.27,2.09,2.96,1.63,4.53-0.47c1.84-2.46,3.86-5.05,6.39-6.67c4.23-2.71,4.34-6.31,3.84-10.56
			c-2.36-20.03-4.71-40.07-6.81-60.13c-0.29-2.77-1.36-3.69-3.73-4.4c-15.55-4.7-29.42-12.48-41.9-22.86
			c-6.27-5.21-10.97-11.57-13.77-19.13c-1.34-3.62-2.35-4.66-6.31-2.94c-6.36,2.75-13.25,3.97-20.24,3.84
			c-7.52-0.15-13.86-5.79-14.33-13c-1.28-19.9,8.92-43.64,35.78-48.3c0.6-1.41-0.72-1.75-1.42-2.32
			c-6.69-5.52-13.27-11.16-22.06-13.32c-3.6-0.88-5.16-3.95-4.72-7.52c0.46-3.68,2.6-6.21,6.53-6.71c4.33-0.55,8.07,1.31,11.72,3.19
			c7.9,4.06,14.71,9.7,21.66,15.69c1.56-2.15,1.45-4.59,2.04-6.72c6.75-24.05,30.86-32.27,48-30.57c6.83,0.67,12.18,7.3,12.14,14.66
			c-0.03,7.42-1.66,14.58-4.38,21.49c-0.51,1.28-1.78,2.73,0.6,3.5c18.02,5.84,27.42,20.39,36.07,35.69
			c3.04,5.38,5.51,11.04,7.43,16.9c0.8,2.44,1.7,3.48,4.51,3.47c39.38-0.11,78.77-0.1,118.15-0.02c2.45,0,3.56-0.66,4.41-3.05
			c4.15-11.6,8.61-23.09,12.79-34.68c1-2.77,2.51-4.85,4.91-6.53c23.79-16.59,47.53-33.25,71.31-49.87
			c4.76-3.32,8.89-3.01,11.66,0.74c2.9,3.91,1.87,8.15-3.05,11.6c-22.54,15.81-45.09,31.6-67.7,47.32c-2.16,1.5-3.61,3.23-4.49,5.7
			c-2.99,8.43-5.96,16.88-9.26,25.19c-1.28,3.23-0.34,3.62,2.62,3.57c9-0.14,18-0.05,26.99-0.05c19.57,0,28.55,10.18,26.35,29.63
			c-3.89,34.38-7.67,68.78-11.5,103.17c-2.36,21.22-4.61,42.45-7.21,63.65c-0.39,3.15,0.64,4.86,2.62,6.83
			c31.12,31.05,62.19,62.14,93.27,93.23c9.24,9.24,8.96,18-1.15,26.18c-18.53,15-39.59,23.98-63.44,26.08
			c-0.7,0.06-1.5-0.13-1.8,0.8c-7.38,0-14.75,0-22.13,0c-0.14-0.24-0.25-0.67-0.42-0.69c-8.99-1.06-17.81-2.93-26.34-5.99
			c-1-0.36-1.65-0.23-2.33,0.46c-3.23,3.28-7.5,4.63-11.63,6.22c-49.57,0-99.14,0-148.71,0c-3.56-2.15-7.83-3.11-10.72-6.39
			c-0.52-0.6-1.17-0.79-1.94-0.34c-6.49,3.81-13.82,4.99-20.97,6.73c-4.13,0-8.26,0-12.39,0c-2.23-1.84-5.2-1.32-7.68-2.45
			c-1.82-0.83-4.24-2.2-5.7-1.62c-4.31,1.71-8.92,2.3-13.17,4.07c-4.72,0-9.44,0-14.16,0c-0.2-0.98-1.02-0.82-1.71-0.96
			c-10.11-2.04-19.21-6.35-27.39-12.54c-22.28-16.85-35.21-39.78-42.5-66.24c-1.84-6.68-3.04-13.53-4.53-20.3
			C28.6,375.9,28.6,366.75,28.6,357.6z M370.11,226.66c-0.72,0.21-1.02,0.26-1.28,0.38c-3.16,1.57-6.3,3.18-9.47,4.72
			c-18.44,8.95-37.46,10.62-56.96,4.04c-3.16-1.07-4.32-0.77-5.52,2.52c-12.32,33.77-24.82,67.46-37.27,101.18
			c-12.4,33.58-24.79,67.16-37.2,100.74c-0.71,1.92-1.24,3.98-2.82,5.42c-2.85,2.57-6.03,2.99-9.32,0.95
			c-3.34-2.07-4.15-5.75-2.37-10.56c16.83-45.54,33.67-91.08,50.5-136.62c8.69-23.52,17.36-47.04,26.05-70.57
			c-14.43-4.83-29.24-4.05-43.52,2.73c-23.7,11.25-47.08,10.9-70.34-1.24c-2.38-1.24-4.63-3.01-7.92-3.26
			c0.72,6.23,1.44,12.22,2.1,18.21c3.93,35.87,7.79,71.74,11.77,107.6c3.98,35.86,8.09,71.71,12.13,107.56
			c0.87,7.75,2.86,9.56,10.66,9.56c43.37,0,86.74,0,130.12,0c1.39,0,2.79,0,5.26,0c-1.9-1.24-2.82-1.85-3.75-2.44
			c-33.97-21.51-53.28-52.38-56.8-92.29c-2.82-31.99,6.59-60.75,27.04-85.72c7.1-8.67,16.4-9.25,24.38-1.4
			c6.2,6.1,12.33,12.29,18.47,18.46c4.95,4.96,9.88,9.94,15.42,15.51C363.07,289.81,366.57,258.42,370.11,226.66z M43.53,373.04
			c0.2,17.81,4.86,36.33,13.86,53.7c7.78,15.01,17.88,28.12,32.79,36.75c12.41,7.18,25.3,9.26,38.61,2.18
			c2.88-1.53,5.58-0.97,8.39,0.44c11.41,5.7,22.74,4.56,33.99-0.63c2-0.92,2.7-2.06,2.4-4.42c-1.77-14.17-3.38-28.36-4.95-42.55
			c-3.62-32.78-7.22-65.56-10.74-98.35c-0.26-2.43-0.88-2.78-2.9-1.52c-4.01,2.51-8.33,4.4-13,5.22c-1.92,0.34-1.91,1.39-1.91,2.77
			c0.01,3.1,0.1,6.2-0.03,9.29c-0.21,4.8-3.38,7.84-7.84,7.7c-4.28-0.14-7.02-3.11-7.12-7.85c-0.07-3.1-0.01-6.19-0.02-9.29
			c0-1.21,0.02-2.27-1.67-2.54c-6.69-1.07-12.24-4.76-18.05-7.9c-21.06-11.38-41.63-5.11-53,16.05
			C45.77,344.32,43.56,357.53,43.53,373.04z M313.31,150.65c-1.39-0.07-2.12-0.13-2.85-0.13c-48.64,0-97.28-0.02-145.92,0.01
			c-7.39,0-10.15,3.23-9.29,11c1.63,14.77,3.46,29.52,5.04,44.3c0.22,2.02,0.92,3.08,2.68,3.92c5.03,2.38,10.05,4.83,14.98,7.41
			c18.62,9.73,37.32,9.99,56.27,0.89c16.86-8.1,34.39-9.53,52.35-4.35c2.75,0.79,3.51,0.16,4.36-2.31
			c2.33-6.79,5.02-13.45,7.5-20.19C303.34,177.88,308.21,164.55,313.31,150.65z M392.18,455.27c-3.69-0.4-8.24-0.31-12.8-1.02
			c-64.81-9.99-97.47-84.18-60.8-138.29c1.78-2.63,5.37-5.55,4.96-7.75c-0.51-2.77-4.44-4.81-6.59-7.41
			c-2.23-2.7-3.6-2.62-5.78,0.25c-18.9,24.9-26.32,52.71-20.62,83.5c14.4,77.8,105.33,111.52,167.59,62.57
			c2.41-1.89,2.25-3.01,0.12-4.81c-1.91-1.61-3.72-3.41-5.24-5.38c-1.86-2.4-3.18-2.28-5.59-0.41
			C431.47,448.95,413.3,455.19,392.18,455.27z M350.84,150.52c-6.04,0-12.09,0.12-18.13-0.06c-2.47-0.07-3.54,0.73-4.4,3.09
			c-7.77,21.35-15.65,42.66-23.64,63.93c-0.92,2.46-0.4,3.2,1.95,3.96c10.14,3.31,20.37,4.1,30.88,2.04
			c12.05-2.36,22.13-9.19,33.05-14.11c1.78-0.8,1.67-2.23,1.82-3.62c1.72-15.35,3.54-30.69,5.06-46.07c0.6-6.1-2.31-9.03-8.47-9.14
			C362.93,150.43,356.88,150.52,350.84,150.52z M141.7,175.23c-0.47-3.94-0.83-7.43-1.31-10.9c-2.45-17.6,7.25-28.81,24.98-28.82
			c4.17,0,8.34,0,12.84,0c-4.31-11.76-10.18-21.85-17.81-30.92c-5.31-6.32-12.02-10.15-20.06-11.95c-2.22-0.5-3.83-0.23-5.72,0.97
			c-7.68,4.9-16.06,7.92-25.23,8.2c-2.95,0.09-3.69,1.26-3.75,3.98c-0.19,7.78-1.98,15.41-6.36,21.7
			c-4.17,5.99-2.82,11.15-0.28,16.77c1.46,3.24,3.24,6.33,5.77,8.81C115.18,163.34,127.6,170.28,141.7,175.23z M385.18,385.18
			c-12.91,12.9-25.77,25.75-38.62,38.58c9.39,8.34,22.5,13.82,38.62,15.99C385.18,421.51,385.18,403.29,385.18,385.18z
			 M374.62,358.48c-13.18-13.17-25.66-25.6-38.07-38.09c-1.89-1.9-2.43-0.14-3.24,0.91c-7.84,10.27-12.28,21.93-14.28,34.62
			c-0.4,2.53,0.83,2.55,2.69,2.53c6.92-0.05,13.84,0.02,20.77,0.02C352.86,358.49,363.24,358.48,374.62,358.48z M373.68,373.47
			c-17.42,0-34.52-0.01-51.62,0.02c-1.39,0-3.51-0.85-3.04,2.14c2.17,13.73,7.17,26.19,15.81,36.58
			C347.8,399.28,360.59,386.52,373.68,373.47z M400.36,385.09c0,17.7,0.01,35.2-0.01,52.7c0,1.33,0.05,2.16,1.89,1.9
			c13.83-1.99,26.3-7.05,37.04-15.79C426.35,411.01,413.53,398.22,400.36,385.09z M65.42,275.76c11.3,10.12,22.98,17.92,36.66,22.05
			c7.27,2.2,14.89,1.91,22.11-1.03c6.2-2.52,7.35-7.23,2.64-12.03c-5.78-5.9-12.87-9.95-21.07-11.22
			C92.55,271.49,79.42,272.63,65.42,275.76z M90.72,105.14c0.9-3.25-1-3.8-4.07-3.12c-1.15,0.25-2.33,0.36-3.47,0.6
			c-15.33,3.31-22.86,11.78-24.57,28.88c-0.17,1.67-0.34,3.25,2.33,2.92C78.85,132.25,88.48,124.6,90.72,105.14z M109.57,86.84
			c19.09-1.95,26.68-12.38,28.7-29.93c0.32-2.82-1.58-2.29-3.08-2.13c-19.06,1.98-27.29,11.4-29.53,29.55
			C105.25,87.64,107.34,86.96,109.57,86.84z M141.19,308.35c5.19-1.47,8.84-4.59,13.1-6.45c1.24-0.54,1.24-1.47,1.12-2.53
			c-0.65-6.02-1.29-12.04-2.02-18.87C146.44,289.02,142.69,297.85,141.19,308.35z"/>
		<path class="st1" d="M340.19,485.08c4.13-1.6,8.4-2.94,11.63-6.22c0.68-0.69,1.33-0.81,2.33-0.46c8.53,3.07,17.35,4.93,26.34,5.99
			c0.16,0.02,0.28,0.45,0.42,0.69C367.34,485.08,353.76,485.08,340.19,485.08z"/>
		<path class="st1" d="M157.84,485.08c7.15-1.74,14.49-2.92,20.97-6.73c0.78-0.46,1.42-0.26,1.94,0.34
			c2.89,3.28,7.16,4.24,10.72,6.39C180.26,485.08,169.05,485.08,157.84,485.08z"/>
		<path class="st1" d="M118.89,485.08c4.25-1.77,8.86-2.35,13.17-4.07c1.47-0.58,3.88,0.79,5.7,1.62c2.48,1.13,5.46,0.61,7.68,2.45
			C136.59,485.08,127.74,485.08,118.89,485.08z"/>
		<path class="st2" d="M370.11,226.66c-3.54,31.76-7.04,63.15-10.64,95.47c-5.54-5.57-10.47-10.55-15.42-15.51
			c-6.15-6.16-12.27-12.35-18.47-18.46c-7.98-7.85-17.28-7.26-24.38,1.4c-20.45,24.97-29.86,53.73-27.04,85.72
			c3.52,39.91,22.83,70.78,56.8,92.29c0.93,0.59,1.85,1.2,3.75,2.44c-2.47,0-3.86,0-5.26,0c-43.37,0-86.74,0-130.12,0
			c-7.81,0-9.79-1.81-10.66-9.56c-4.04-35.85-8.15-71.7-12.13-107.56c-3.98-35.86-7.84-71.73-11.77-107.6
			c-0.66-5.99-1.38-11.97-2.1-18.21c3.28,0.25,5.54,2.02,7.92,3.26c23.27,12.14,46.64,12.49,70.34,1.24
			c14.28-6.78,29.09-7.56,43.52-2.73c-8.68,23.53-17.35,47.05-26.05,70.57c-16.83,45.54-33.67,91.08-50.5,136.62
			c-1.78,4.81-0.97,8.5,2.37,10.56c3.3,2.04,6.48,1.62,9.32-0.95c1.59-1.43,2.11-3.5,2.82-5.42c12.41-33.58,24.8-67.16,37.2-100.74
			c12.45-33.72,24.95-67.42,37.27-101.18c1.2-3.29,2.36-3.58,5.52-2.52c19.5,6.58,38.51,4.91,56.96-4.04
			c3.17-1.54,6.31-3.15,9.47-4.72C369.09,226.92,369.39,226.87,370.11,226.66z M236.62,280.65c0.01-14.52-11.45-26.13-25.91-26.23
			c-14.22-0.1-26.19,11.79-26.24,26.06c-0.04,14.31,11.67,26.07,26.07,26.17C224.95,306.75,236.61,295.13,236.62,280.65z
			 M199.32,328.73c-4.08,0.1-7.42,3.68-7.29,7.83c0.14,4.18,3.64,7.38,7.85,7.17c3.97-0.2,7.19-3.58,7.14-7.51
			C206.97,332.17,203.34,328.64,199.32,328.73z M206.96,365.85c-4.04-0.03-7.53,3.54-7.5,7.66c0.03,4.09,3.11,7.23,7.2,7.35
			c4.25,0.12,7.69-3.1,7.77-7.28C214.52,369.53,210.99,365.88,206.96,365.85z"/>
		<path class="st2" d="M43.53,373.04c0.03-15.51,2.24-28.72,8.82-40.95c11.37-21.16,31.94-27.43,53-16.05
			c5.81,3.14,11.37,6.82,18.05,7.9c1.69,0.27,1.67,1.33,1.67,2.54c0,3.1-0.05,6.2,0.02,9.29c0.1,4.73,2.84,7.71,7.12,7.85
			c4.46,0.14,7.63-2.89,7.84-7.7c0.13-3.09,0.04-6.19,0.03-9.29c-0.01-1.38-0.01-2.43,1.91-2.77c4.67-0.82,8.99-2.71,13-5.22
			c2.02-1.26,2.64-0.91,2.9,1.52c3.52,32.79,7.12,65.57,10.74,98.35c1.57,14.19,3.18,28.38,4.95,42.55c0.3,2.37-0.4,3.5-2.4,4.42
			c-11.25,5.19-22.58,6.33-33.99,0.63c-2.82-1.41-5.51-1.97-8.39-0.44c-13.31,7.08-26.2,5-38.61-2.18
			c-14.9-8.62-25.01-21.73-32.79-36.75C48.39,409.37,43.72,390.86,43.53,373.04z M58.13,372.26c-0.04,6.16,1.04,16.66,4.16,26.86
			c1.18,3.85,4.06,5.78,8.09,5.3c3.84-0.46,6.06-2.99,6.49-6.72c0.19-1.66-0.46-3.46-0.95-5.13c-4.49-15.37-3.74-30.46,2.18-45.34
			c1.31-3.28,3.25-5.78,6.51-7.38c4.6-2.25,6.05-6.08,4.15-10.09c-1.89-3.98-5.88-5.33-10.49-3.44c-5.06,2.07-8.93,5.51-11.72,10.26
			C60.9,346.23,58.77,356.78,58.13,372.26z"/>
		<path class="st2" d="M313.31,150.65c-5.1,13.9-9.97,27.22-14.88,40.53c-2.48,6.74-5.17,13.4-7.5,20.19
			c-0.85,2.47-1.61,3.11-4.36,2.31c-17.96-5.18-35.49-3.75-52.35,4.35c-18.95,9.11-37.65,8.85-56.27-0.89
			c-4.94-2.58-9.95-5.02-14.98-7.41c-1.76-0.84-2.47-1.89-2.68-3.92c-1.59-14.78-3.41-29.52-5.04-44.3c-0.86-7.77,1.9-10.99,9.29-11
			c48.64-0.03,97.28-0.01,145.92-0.01C311.19,150.52,311.92,150.59,313.31,150.65z"/>
		<path class="st1" d="M392.18,455.27c21.11-0.08,39.29-6.32,55.26-18.74c2.41-1.87,3.73-1.99,5.59,0.41
			c1.52,1.97,3.34,3.77,5.24,5.38c2.13,1.8,2.29,2.92-0.12,4.81c-62.26,48.95-153.19,15.24-167.59-62.57
			c-5.7-30.8,1.72-58.61,20.62-83.5c2.18-2.87,3.55-2.96,5.78-0.25c2.15,2.6,6.08,4.64,6.59,7.41c0.41,2.2-3.18,5.13-4.96,7.75
			c-36.67,54.11-4.01,128.3,60.8,138.29C383.94,454.96,388.49,454.87,392.18,455.27z"/>
		<path class="st2" d="M350.84,150.52c6.04,0,12.09-0.09,18.13,0.02c6.16,0.11,9.07,3.04,8.47,9.14
			c-1.52,15.37-3.34,30.71-5.06,46.07c-0.16,1.39-0.04,2.82-1.82,3.62c-10.92,4.92-21,11.74-33.05,14.11
			c-10.51,2.06-20.74,1.27-30.88-2.04c-2.34-0.76-2.87-1.51-1.95-3.96c7.99-21.27,15.87-42.58,23.64-63.93
			c0.86-2.36,1.93-3.16,4.4-3.09C338.75,150.64,344.8,150.52,350.84,150.52z"/>
		<path class="st1" d="M141.7,175.23c-14.11-4.95-26.52-11.89-36.93-22.15c-2.52-2.49-4.3-5.58-5.77-8.81
			c-2.54-5.62-3.89-10.78,0.28-16.77c4.38-6.29,6.18-13.93,6.36-21.7c0.06-2.72,0.8-3.9,3.75-3.98c9.17-0.28,17.55-3.3,25.23-8.2
			c1.89-1.2,3.5-1.47,5.72-0.97c8.04,1.8,14.75,5.63,20.06,11.95c7.63,9.08,13.5,19.16,17.81,30.92c-4.5,0-8.67,0-12.84,0
			c-17.72,0-27.43,11.22-24.98,28.82C140.88,167.8,141.23,171.3,141.7,175.23z M147.62,113.32c-4.22-0.08-7.52,3.2-7.54,7.47
			c-0.01,4.13,2.98,7.32,7.04,7.5c4.08,0.18,7.76-3.17,7.93-7.23C155.22,117.1,151.67,113.4,147.62,113.32z M117.77,142.97
			c-0.06,4.32,3.09,7.51,7.42,7.51c4.18,0,7.67-3.45,7.59-7.5c-0.08-3.82-3.51-7.3-7.36-7.45
			C121.37,135.38,117.83,138.82,117.77,142.97z"/>
		<path class="st1" d="M385.18,385.18c0,18.11,0,36.33,0,54.57c-16.12-2.17-29.22-7.65-38.62-15.99
			C359.4,410.93,372.26,398.08,385.18,385.18z"/>
		<path class="st2" d="M374.62,358.48c-11.38,0-21.76,0.01-32.14,0c-6.92-0.01-13.84-0.07-20.77-0.02
			c-1.85,0.01-3.09-0.01-2.69-2.53c2.01-12.69,6.44-24.35,14.28-34.62c0.81-1.05,1.35-2.82,3.24-0.91
			C348.95,332.89,361.43,345.31,374.62,358.48z"/>
		<path class="st2" d="M373.68,373.47c-13.09,13.05-25.88,25.81-38.85,38.74c-8.64-10.39-13.64-22.84-15.81-36.58
			c-0.47-2.99,1.65-2.14,3.04-2.14C339.16,373.46,356.26,373.47,373.68,373.47z"/>
		<path class="st2" d="M400.36,385.09c13.17,13.13,25.99,25.92,38.91,38.81c-10.73,8.75-23.21,13.81-37.04,15.79
			c-1.83,0.26-1.89-0.57-1.89-1.9C400.36,420.29,400.36,402.79,400.36,385.09z"/>
		<path class="st1" d="M65.42,275.76c14-3.13,27.13-4.28,40.34-2.23c8.21,1.27,15.29,5.32,21.07,11.22
			c4.71,4.8,3.56,9.52-2.64,12.03c-7.22,2.93-14.84,3.22-22.11,1.03C88.4,293.68,76.72,285.88,65.42,275.76z"/>
		<path class="st1" d="M90.72,105.14c-2.24,19.46-11.87,27.11-29.78,29.29c-2.67,0.33-2.5-1.26-2.33-2.92
			c1.71-17.11,9.23-25.58,24.57-28.88c1.15-0.25,2.33-0.35,3.47-0.6C89.72,101.34,91.62,101.89,90.72,105.14z"/>
		<path class="st1" d="M109.57,86.84c-2.23,0.13-4.32,0.81-3.91-2.51c2.24-18.16,10.48-27.57,29.53-29.55
			c1.5-0.16,3.4-0.69,3.08,2.13C136.25,74.45,128.65,84.89,109.57,86.84z"/>
		<path class="st1" d="M141.19,308.35c1.5-10.5,5.25-19.33,12.21-27.86c0.73,6.84,1.37,12.86,2.02,18.87
			c0.11,1.06,0.12,1.99-1.12,2.53C150.03,303.77,146.38,306.88,141.19,308.35z"/>
		<path class="st0" d="M236.62,280.65c-0.01,14.48-11.67,26.1-26.08,26c-14.4-0.1-26.11-11.86-26.07-26.17
			c0.04-14.26,12.02-26.16,26.24-26.06C225.18,254.52,236.64,266.13,236.62,280.65z M221.61,280.7c0.06-6.14-4.58-10.9-10.75-11.01
			c-6.24-0.11-11.41,4.89-11.33,10.98c0.07,5.93,5.07,10.8,11.08,10.8C216.77,291.47,221.55,286.79,221.61,280.7z"/>
		<path class="st0" d="M199.32,328.73c4.02-0.1,7.65,3.43,7.7,7.48c0.05,3.93-3.17,7.31-7.14,7.51c-4.21,0.21-7.71-2.98-7.85-7.17
			C191.9,332.42,195.24,328.83,199.32,328.73z"/>
		<path class="st0" d="M206.96,365.85c4.03,0.03,7.56,3.68,7.48,7.74c-0.08,4.18-3.53,7.4-7.77,7.28c-4.09-0.12-7.17-3.26-7.2-7.35
			C199.43,369.38,202.92,365.82,206.96,365.85z"/>
		<path class="st0" d="M58.13,372.26c0.64-15.48,2.76-26.03,8.42-35.67c2.79-4.75,6.66-8.18,11.72-10.26
			c4.61-1.89,8.6-0.54,10.49,3.44c1.91,4.01,0.45,7.84-4.15,10.09c-3.27,1.59-5.21,4.1-6.51,7.38c-5.92,14.87-6.67,29.97-2.18,45.34
			c0.49,1.67,1.14,3.48,0.95,5.13c-0.43,3.72-2.66,6.26-6.49,6.72c-4.03,0.48-6.91-1.45-8.09-5.3
			C59.17,388.92,58.09,378.42,58.13,372.26z"/>
		<path class="st0" d="M147.62,113.32c4.05,0.08,7.6,3.78,7.43,7.75c-0.17,4.05-3.85,7.41-7.93,7.23c-4.06-0.18-7.05-3.37-7.04-7.5
			C140.1,116.52,143.4,113.24,147.62,113.32z"/>
		<path class="st0" d="M117.77,142.97c0.06-4.16,3.6-7.6,7.66-7.44c3.85,0.15,7.28,3.62,7.36,7.45c0.08,4.05-3.41,7.5-7.59,7.5
			C120.86,150.49,117.71,147.3,117.77,142.97z"/>
		<path class="st1" d="M221.61,280.7c-0.06,6.09-4.85,10.77-11,10.77c-6.01,0-11.01-4.87-11.08-10.8
			c-0.08-6.09,5.09-11.09,11.33-10.98C217.03,269.8,221.68,274.56,221.61,280.7z"/>
	</g>
</g>
</svg>
