<?xml version="1.0" encoding="utf-8"?>
<!-- Generator: Adobe Illustrator 26.5.0, SVG Export Plug-In . SVG Version: 6.00 Build 0)  -->
<svg version="1.1" id="Layer_1" xmlns="http://www.w3.org/2000/svg" xmlns:xlink="http://www.w3.org/1999/xlink" x="0px" y="0px"
	 viewBox="0 0 100 100" style="enable-background:new 0 0 100 100;" xml:space="preserve">
<style type="text/css">
	.st0{fill:#131414;}
</style>
<g>
	<path class="st0" d="M12.77,41.4c0.15-0.22,0.18-0.26,0.21-0.3c1.43-2.64,1.52-5.3,0.71-8.23c-0.91-3.33-0.01-6.66,1.06-9.86
		c0.52-1.57,1.76-2.62,3.41-2.92c2.89-0.52,5.81-0.53,8.66,0.22c1.39,0.37,2.55,0.37,3.7-0.55c0.6-0.48,1.35-0.77,2.17-1.22
		c-1.53-1.29-3.36-1.66-5.13-2.11c-0.91-0.23-1.87-0.29-2.82-0.38c-0.91-0.09-1.74-0.32-1.65-1.45c0.09-1.11,0.92-1.28,1.84-1.16
		c3.52,0.42,6.93,1.2,9.89,3.29c0.63,0.45,1.17,0.4,1.86,0.16c8.85-3.12,17.72-3.11,26.58-0.02c0.68,0.24,1.2,0.32,1.86-0.12
		c4.91-3.28,10.42-3.69,16.08-3.26c1.17,0.09,2.32,0.37,3.48,0.47c2.96,0.25,4.75,1.87,5.8,4.57c2.62,6.75,3.67,13.54,0.87,20.52
		c-0.56,1.41-1.16,2.84-2.16,3.93c-1.15,1.25-1,2.49-0.76,3.97c1.09,6.56,0.76,13.02-1.78,19.25c-0.35,0.86-0.69,1.8-1.86,1.38
		c-1.16-0.42-0.88-1.31-0.55-2.23c4.66-13.12,2.13-25.02-6.64-35.51c-7.43-8.89-17.3-12.99-28.86-12.72
		c-17.27,0.4-32.06,13.5-34.74,30.61c-1.43,9.13,0.01,17.6,6.19,24.82c4.44,5.19,10.26,8.19,16.78,9.79
		c11.27,2.76,22.37,2.35,33.06-2.53c4.54-2.07,8.39-5.09,11.31-9.2c0.52-0.74,1.12-1.6,2.15-0.77c0.96,0.77,0.41,1.6-0.14,2.34
		C78.5,78.73,71.9,82.71,64.1,84.68c-12.64,3.2-25.07,2.77-36.8-3.4C16.65,75.67,11.36,66.55,11,54.54c-0.09-3.03,0.18-6.03,0.77-9
		c0.1-0.52,0.2-0.95-0.15-1.4c-5.93-7.74-5.5-16.09-2.48-24.77c1.21-3.48,3.45-5.33,7.07-5.61c0.95-0.07,1.89-0.21,2.83-0.31
		c0.87-0.09,1.63,0.11,1.74,1.11c0.12,1.11-0.65,1.44-1.59,1.48c-1.57,0.07-3.11,0.32-4.64,0.64c-0.94,0.2-1.72,0.73-2.08,1.55
		c-3.22,7.21-4.39,14.49-0.49,21.87C12.18,40.49,12.44,40.85,12.77,41.4z M87.24,41.54c0.16-0.32,0.26-0.52,0.37-0.71
		c0.34-0.64,0.74-1.25,1.03-1.91c3.07-7,1.95-13.81-1.01-20.52c-0.55-1.24-1.7-1.72-2.96-1.93c-3.43-0.55-6.9-0.78-10.35-0.37
		c-2.47,0.29-4.9,0.86-7.09,2.39c0.91,0.5,1.74,0.86,2.45,1.38c1.02,0.75,2,0.87,3.24,0.52c2.72-0.76,5.5-0.77,8.3-0.39
		c2.03,0.28,3.43,1.31,4.08,3.22c1.43,4.21,1.89,8.48,0.32,12.77c-0.23,0.62-0.24,1.13,0.03,1.73
		C86.17,38.87,86.63,40.06,87.24,41.54z M26.05,22.73c-1.87-0.46-3.47-0.34-5.06-0.32c-3.37,0.05-3.8,0.38-4.51,3.64
		c-0.53,2.42-0.67,4.86-0.17,7.74C19.03,29.38,22.12,25.89,26.05,22.73z M74.26,22.76c3.69,3.13,6.69,6.71,9.46,11.01
		c0.49-3.64,0.23-6.7-0.79-9.71c-0.28-0.82-0.86-1.4-1.66-1.5C78.95,22.28,76.62,22.32,74.26,22.76z"/>
	<path class="st0" d="M62.88,58.85c0.01,4.12-2.9,6.98-7.42,6.38c-3.69-0.48-7.19-0.47-10.89-0.02c-5.38,0.66-8.42-3.36-7.17-8.67
		c1.32-5.59,6.8-9.9,12.59-9.9c5.79,0,11.28,4.3,12.59,9.89C62.75,57.29,62.78,58.08,62.88,58.85z M54.72,62.74
		c4.71,0.03,6.11-1.62,5.38-5.51c-0.72-3.87-3.34-6.06-6.78-7.38c-5.62-2.17-12.39,1.68-13.48,7.57c-0.66,3.57,0.79,5.55,4.39,5.25
		C48,62.36,51.71,60.91,54.72,62.74z"/>
	<path class="st0" d="M30.37,59.38c-0.61,0-1.23,0.02-1.84,0c-0.78-0.03-1.27-0.49-1.33-1.23c-0.06-0.69,0.42-1.22,1.08-1.27
		c1.33-0.09,2.67-0.09,3.99-0.01c0.67,0.04,1.11,0.58,1.07,1.28c-0.04,0.76-0.51,1.21-1.31,1.23
		C31.49,59.39,30.93,59.38,30.37,59.38z"/>
	<path class="st0" d="M69.64,59.37c-0.61,0-1.23,0.04-1.84-0.01c-0.71-0.05-1.12-0.52-1.16-1.2c-0.04-0.69,0.39-1.25,1.06-1.29
		c1.33-0.09,2.67-0.09,4,0c0.66,0.04,1.14,0.57,1.09,1.26c-0.05,0.74-0.53,1.21-1.31,1.24C70.86,59.4,70.25,59.38,69.64,59.37
		C69.64,59.37,69.64,59.37,69.64,59.37z"/>
	<path class="st0" d="M33.92,51.98c-0.25,1.09,0.55,2.79-1.34,2.73c-1.8-0.05-1.22-1.7-1.22-2.74c0-1.04-0.57-2.7,1.29-2.66
		C34.5,49.37,33.61,51.07,33.92,51.98z"/>
	<path class="st0" d="M68.66,52.28c-0.17,0.83,0.48,2.39-1.21,2.44c-1.89,0.06-1.19-1.58-1.32-2.62c-0.05-0.44,0-0.89-0.01-1.33
		c-0.01-0.83,0.28-1.43,1.18-1.49c1.05-0.07,1.31,0.64,1.35,1.5C68.68,51.22,68.66,51.66,68.66,52.28z"/>
	<path class="st0" d="M42.52,57.44c0-2.03,1.72-3.9,3.58-3.86c1.34,0.02,2.18,0.92,2.22,2.38c0.04,1.93-1.74,3.97-3.51,4.01
		C43.48,59.99,42.53,58.93,42.52,57.44z"/>
	<path class="st0" d="M57.46,57.46c-0.01,1.5-0.97,2.54-2.3,2.5c-1.78-0.06-3.54-2.1-3.49-4.03c0.04-1.45,0.89-2.34,2.24-2.35
		C55.77,53.56,57.48,55.43,57.46,57.46z"/>
</g>
</svg>
