<?xml version="1.0" encoding="utf-8"?>
<!-- Generator: Adobe Illustrator 24.0.1, SVG Export Plug-In . SVG Version: 6.00 Build 0)  -->
<svg version="1.1" id="Layer_1" xmlns="http://www.w3.org/2000/svg" xmlns:xlink="http://www.w3.org/1999/xlink" x="0px" y="0px"
	 viewBox="0 0 512 512" style="enable-background:new 0 0 512 512;" xml:space="preserve">
<style type="text/css">
	.st0{fill:#0D0C0C;}
	.st1{fill:#CCCACB;}
	.st2{fill:#FEFEFE;}
</style>
<g id="yDrq8G.tif">
	<g>
		<path class="st0" d="M511.53,347.18c0,1.99,0,3.99,0,5.98c-14.08,19.62-28.18,39.24-42.22,58.88c-2.19,3.06-4.54,5.74-8.62,6.05
			c-9.67-0.01-19.34-0.01-29.01-0.02c-13.71-1.66-20.23-14.14-13.49-26.36c6.88-12.46,14.05-24.76,21.24-37.05
			c1.42-2.42,1.34-3.83-0.85-5.83c-9.35-8.54-19.37-16.1-30.24-22.62c-2.63-1.58-4.37-1.81-6.87,0.28
			c-4.59,3.82-9.78,6.81-15.07,9.59c-33.35,17.53-69.41,22.56-106.42,22.47c-30.51-0.08-59.85-6.44-87.97-18.35
			c-5.31-2.25-6.63-1.36-7.75,4.27c-4.31,21.74-8.67,43.46-12.99,65.2c-0.98,4.94-3.6,8.08-8.89,8.46
			c-11.34,0-22.68-0.01-34.02-0.01c-6.54-1.29-8.7-4.1-8.71-11.63c-0.03-22.91-0.06-45.83,0.04-68.74c0.01-3.61-0.64-5.97-4.84-6.56
			c-34.98-4.9-69.93-9.92-104.9-14.9c-6.7-0.95-9.23-3.77-9.25-10.52c-0.03-12.78-0.02-25.57,0-38.35
			c0.01-7.76,2.38-10.36,10.13-11.02c18.63-1.59,31.99-10.71,39.99-27.65c6.21-13.15,12.5-26.26,18.74-39.39
			c1.92-4.03,6.23-9.09,5.08-11.86c-1.46-3.5-8-3.41-12.37-4.79c-13.18-4.15-22.84-12.39-29.15-24.62
			c-5.38-10.44-6.56-21.75-6.93-33.25c-0.26-8.01,3.07-11.57,11.2-11.62c10.31-0.06,20.62-0.14,30.92,0.01
			c16.96,0.26,32.25,5.4,45.3,16.41c2.29,1.93,3.66,1.94,6.13,0.15c21.35-15.47,45.13-24.52,71.64-24.64
			c66.66-0.31,133.33-0.15,200-0.23c8.67-0.01,17.35,0.43,25.7,2.54c48.09,12.11,78.8,41.99,91.55,90.06
			c1.16,4.37,0.62,9.08,2.92,13.17c0,11.63,0,23.25,0,34.88c-0.3,0.35-0.84,0.68-0.86,1.05c-1.18,16.26-5.1,31.98-9.39,47.62
			C495.09,306.79,498.85,327.7,511.53,347.18z M492.88,238.79c-18.58,3.21-32.01-7.8-32.42-26.01c-0.09-3.82-0.01-7.64-0.02-11.46
			c-0.01-8.51-2.84-12.68-8.57-12.62c-5.65,0.05-8.49,3.86-8.15,12.25c0.17,4.19-1.36,5.24-5.04,4.7c-0.81-0.12-1.66-0.02-2.49-0.02
			c-10.7,0-10.7,0-9.61-10.63c1.43-13.98,12.49-24,25.96-23.54c14.13,0.49,24.75,11.37,25.02,25.72c0.1,5.15-0.05,10.3,0.04,15.44
			c0.1,5.87,3.58,9.8,8.47,9.75c4.79-0.05,8.62-4.28,8.28-9.9c-0.39-6.44-0.77-12.98-2.17-19.25
			c-10.92-48.69-51.67-81.16-101.77-81.2c-64.67-0.06-129.34-0.04-194.02,0.04c-5.63,0.01-11.35,0.2-16.88,1.17
			c-39.19,6.82-67.7,28-85.01,63.88c-9.4,19.5-18.66,39.07-27.9,58.64c-9.32,19.73-24.38,32.26-45.92,36.58
			c-2.7,0.54-3.04,1.8-3.01,4.05c0.09,6.81,0.09,13.62,0,20.42c-0.03,2.31,0.36,3.33,3.12,3.71c30.55,4.19,61.07,8.66,91.61,12.9
			c19.12,2.65,24.76,8.96,24.76,28.38c0,14.94-0.02,29.89,0.01,44.83c0.01,4.62-1.61,10.87,0.74,13.43
			c2.74,2.99,9.11,0.39,13.83,1.02c3.25,0.43,3.96-1.27,4.45-3.75c3.67-18.49,7.44-36.96,11.05-55.46
			c3.45-17.66,15.54-24.31,32.18-17.33c48.05,20.16,97.24,21.43,147.15,8.61c15.35-3.94,29.9-10.1,43.94-19.9
			c-1.95-1.56-3.71-2.62-5.03-4.09c-9.39-10.47-15.57-22.52-17.7-36.51c-1.04-6.8-1-6.81,5.79-7.64c9.4-1.16,9.47-1.17,11.7,7.86
			c3.86,15.61,12.67,27.53,26.62,35.53c16.07,9.21,30.94,19.95,43.85,33.29c5.83,6.02,6.2,8.23,1.95,15.67
			c-7.56,13.21-15.17,26.4-22.68,39.64c-0.66,1.16-2.07,2.2-1.4,4.02c6.5,0,12.98-0.07,19.46,0.04c2.01,0.04,3.31-0.52,4.52-2.22
			c11.12-15.69,22.33-31.33,33.54-46.96c1.02-1.42,1.53-2.51,0.56-4.39c-12.52-24.28-13.36-49.35-5.23-75.16
			C489.84,261.61,492.08,250.58,492.88,238.79z M59.77,120.68c-3.15,0-6.3,0-9.46,0c-6.68,0.01-6.77,0.02-5.77,6.79
			c2.16,14.7,9.58,25.06,24.42,29.25c3.17,0.9,6.38,1.76,9.43,2.98c3.4,1.35,5.49,0.98,7.37-2.65c3.27-6.33,7.71-11.94,12.38-17.34
			c6.08-7.02,5.96-6.87-2.46-11.76C84.48,121.46,72.39,119.9,59.77,120.68z"/>
		<path class="st1" d="M162.37,418.13c0.03,0.27,0.01,0.53-0.05,0.79c-11.31,0-22.62,0-33.92,0c-0.04-0.27-0.06-0.54-0.05-0.81
			C139.69,418.12,151.03,418.12,162.37,418.13z"/>
		<path class="st1" d="M460.69,418.09c-0.02,0.28-0.03,0.55-0.04,0.83c-9.64,0-19.29,0-28.93,0c0.02-0.28,0.01-0.57-0.04-0.85
			C441.35,418.08,451.02,418.08,460.69,418.09z"/>
		<path class="st2" d="M492.88,238.79c-0.8,11.79-3.04,22.82-6.41,33.52c-8.13,25.81-7.29,50.87,5.23,75.16
			c0.97,1.88,0.46,2.98-0.56,4.39c-11.21,15.63-22.42,31.26-33.54,46.96c-1.21,1.7-2.5,2.26-4.52,2.22
			c-6.48-0.12-12.96-0.04-19.46-0.04c-0.67-1.82,0.74-2.86,1.4-4.02c7.51-13.24,15.12-26.43,22.68-39.64
			c4.26-7.44,3.88-9.65-1.95-15.67c-12.92-13.35-27.79-24.08-43.85-33.29c-13.95-8-22.77-19.91-26.62-35.53
			c-2.23-9.03-2.3-9.02-11.7-7.86c-6.78,0.83-6.82,0.84-5.79,7.64c2.13,13.99,8.31,26.04,17.7,36.51c1.32,1.47,3.08,2.53,5.03,4.09
			c-14.04,9.8-28.59,15.96-43.94,19.9c-49.91,12.82-99.1,11.55-147.15-8.61c-16.64-6.98-28.74-0.33-32.18,17.33
			c-3.61,18.5-7.37,36.97-11.05,55.46c-0.49,2.48-1.2,4.18-4.45,3.75c-4.72-0.63-11.09,1.97-13.83-1.02
			c-2.35-2.56-0.72-8.81-0.74-13.43c-0.03-14.94-0.01-29.89-0.01-44.83c0-19.41-5.64-25.72-24.76-28.38
			c-30.55-4.24-61.06-8.71-91.61-12.9c-2.76-0.38-3.16-1.4-3.12-3.71c0.1-6.81,0.09-13.62,0-20.42c-0.03-2.25,0.31-3.51,3.01-4.05
			c21.54-4.32,36.61-16.85,45.92-36.58c9.24-19.57,18.5-39.14,27.9-58.64c17.31-35.88,45.82-57.06,85.01-63.88
			c5.53-0.96,11.25-1.16,16.88-1.17c64.67-0.08,129.34-0.09,194.02-0.04c50.1,0.04,90.85,32.51,101.77,81.2
			c1.4,6.27,1.78,12.81,2.17,19.25c0.34,5.63-3.49,9.85-8.28,9.9c-4.88,0.05-8.36-3.87-8.47-9.75c-0.09-5.15,0.06-10.3-0.04-15.44
			c-0.28-14.35-10.9-25.23-25.02-25.72c-13.48-0.47-24.53,9.56-25.96,23.54c-1.09,10.63-1.09,10.63,9.61,10.63
			c0.83,0,1.68-0.1,2.49,0.02c3.68,0.53,5.21-0.52,5.04-4.7c-0.34-8.39,2.49-12.2,8.15-12.25c5.73-0.05,8.56,4.12,8.57,12.62
			c0,3.82-0.07,7.64,0.02,11.46C460.86,230.99,474.3,242.01,492.88,238.79z M140.79,182.92c7.06-6.82,13.9-13.36,20.67-19.96
			c8.28-8.08,18.13-13.13,29.38-15.75c3.74-0.87,9.18,0.93,10.91-2.5c1.67-3.3,0.15-8.12,0.36-12.26c0.15-2.91-0.9-3.67-3.7-3.49
			c-11.76,0.76-22.84,3.81-33.02,9.72c-17.57,10.2-29.7,26.34-43.68,40.44c-3.31,3.34-2.44,8,1.14,11.55
			c3.54,3.52,7.53,6.48,11.91,8.92c25.16,13.99,62.9,11.03,85.61-6.75c5.24-4.11,5.24-4.1,0.69-8.85c-1.84-1.92-3.8-3.74-5.46-5.8
			c-1.53-1.89-2.8-1.74-4.5-0.3c-8.61,7.3-18.81,11.05-29.82,12.45C167.42,192.09,153.9,191.05,140.79,182.92z M102.76,256.5
			c8.67,0,8.67,0,8.67-8.25c0-8.76,0-8.76-8.66-8.76c-8.43,0-8.43,0-8.43,8.5C94.34,256.5,94.34,256.5,102.76,256.5z"/>
		<path class="st2" d="M59.77,120.68c12.62-0.79,24.72,0.78,35.91,7.28c8.42,4.89,8.54,4.73,2.46,11.76
			c-4.67,5.4-9.11,11.01-12.38,17.34c-1.88,3.63-3.97,4-7.37,2.65c-3.06-1.21-6.26-2.08-9.43-2.98
			c-14.84-4.19-22.26-14.55-24.42-29.25c-1-6.77-0.91-6.79,5.77-6.79C53.46,120.68,56.62,120.68,59.77,120.68z"/>
		<path class="st0" d="M140.79,182.92c13.11,8.14,26.63,9.18,40.5,7.41c11.01-1.4,21.21-5.15,29.82-12.45
			c1.7-1.44,2.97-1.59,4.5,0.3c1.66,2.06,3.62,3.88,5.46,5.8c4.55,4.74,4.55,4.74-0.69,8.85c-22.71,17.78-60.45,20.75-85.61,6.75
			c-4.38-2.44-8.37-5.4-11.91-8.92c-3.58-3.56-4.45-8.22-1.14-11.55c13.97-14.1,26.11-30.24,43.68-40.44
			c10.18-5.91,21.27-8.95,33.02-9.72c2.8-0.18,3.84,0.58,3.7,3.49c-0.21,4.14,1.3,8.96-0.36,12.26c-1.73,3.43-7.16,1.63-10.91,2.5
			c-11.25,2.61-21.09,7.67-29.38,15.75C154.69,169.56,147.86,176.1,140.79,182.92z"/>
		<path class="st0" d="M102.76,256.5c-8.42,0-8.42,0-8.42-8.5c0-8.5,0-8.5,8.43-8.5c8.66,0,8.66,0,8.66,8.76
			C111.43,256.5,111.43,256.5,102.76,256.5z"/>
	</g>
</g>
</svg>
