<?xml version="1.0" encoding="utf-8"?>
<!-- Generator: Adobe Illustrator 24.0.1, SVG Export Plug-In . SVG Version: 6.00 Build 0)  -->
<svg version="1.1" id="Layer_1" xmlns="http://www.w3.org/2000/svg" xmlns:xlink="http://www.w3.org/1999/xlink" x="0px" y="0px"
	 viewBox="0 0 512 512" style="enable-background:new 0 0 512 512;" xml:space="preserve">
<style type="text/css">
	.st0{fill:#FCFCFC;}
	.st1{fill:#111010;}
	.st2{fill:#F4F3F3;}
</style>
<path class="st0" d="M296.04,252.9c1.23-1.85,24.07-33.33,64.81-27.78s129.63,37.04,131.48,82.72
	c1.85,45.68-0.62,127.78-67.28,131.48s-185.19-49.38-185.19-49.38s6.17-40.74,11.73-54.32c5.56-13.58,32.72-74.07,30.25-75.93
	c-2.47-1.85-4.32-27.16-4.32-27.16L296.04,252.9z"/>
<g id="r1Cz5y.tif">
	<g>
		<path class="st1" d="M5.43,427.97c2.38-5.84,4.98-11.4,11.5-13.92c4.19-1.63,8.51-0.63,13.32-1.25c-4.46-4.64-7.24-9.69-6.2-16.05
			c1.86-11.45,12.46-17.88,23.35-13.83c10.38,3.86,20.65,8.05,30.88,12.29c2.67,1.11,4.35,1.38,6.09-1.52
			c2.49-4.14,5.88-7.67,9.64-10.69c2.24-1.79,2-3.05,0.5-5.18c-4.98-7.05-9.05-14.65-12.22-22.68c-0.88-2.22-2.3-3.26-4.45-4.09
			c-10.34-3.99-19.75-9.43-26.81-18.26c-10.52-13.16-12.65-28.14-9.15-44.15c0.72-3.29,0.07-4.94-2.55-6.97
			c-16.02-12.42-23.69-29.34-25.94-49.12c-1.42-12.53-1.43-24.94,3.99-36.62c9.45-20.39,25.67-31.1,48.06-32.21
			c13.9-0.69,27.45,1.09,40.35,6.73c9.27,4.05,17.16,9.94,24.09,17.79c1.33-3.64,2.29-6.96,3.72-10.07
			c5.6-12.16,15-20.46,26.95-26.1c1.72-0.81,3.65-1.04,3.61-3.88c-0.43-26.92,13.33-46.18,33.93-61.43
			c26.19-19.39,57.21-15.18,77.56,10.29c13.17,16.48,21.21,34.78,19.04,56.42c-0.39,3.94-1.31,7.84-2.28,11.69
			c-0.43,1.71-1.12,3.16,1.07,4.39c7.47-15.7,11.09-32.15,10.2-49.57c-0.14-2.71-1.99-4.03-3.64-5.64
			c-25.09-24.59-15.11-66.07,18.34-75.75c12.66-3.66,25.11-2.43,36.5,4.3c6.45,3.81,11.66,3.22,17.87-0.67
			c31.64-19.83,70.52-5.25,80.02,29.83c3.06,11.31,2.78,22.73-1.08,33.8c-2.73,7.85-1.25,13.63,5.04,19.45
			c13.58,12.58,18.73,28.59,14.32,46.59c-4.3,17.57-17.09,27.44-33.86,32.41c-2.92,0.87-3.97,1.76-4.12,4.85
			c-0.31,6.29-1.07,12.57-1.93,18.81c-0.31,2.28,0.1,2.83,2.4,2.7c14.57-0.82,26.89,4.43,37.61,14.05c6.3,5.66,13.89,6.6,21.93,5.42
			c1.31-0.19,2.63-0.47,3.87-0.91c3.89-1.39,6.96-0.07,9.09,3.1c2.2,3.28,1.5,6.57-0.9,9.63c-4.88,6.21-10.69,11.4-17.55,15.28
			c-2.16,1.22-2.29,1.97-0.97,3.99c14.24,21.74,19.14,45.54,15.59,71.2c-0.76,5.45-3.1,8.13-7.18,7.69
			c-4.08-0.44-5.75-3.59-4.99-9.03c3.25-23.28-1.36-44.8-14.36-64.5c-1.71-2.59-3.15-3.24-6.39-2.62
			c-8.53,1.63-17.14,0.82-26.31-1.32c2.61,5.68,5.1,10.64,7.19,15.76c3.61,8.87,3.5,17.51-2.7,25.35
			c-5.27,6.66-13.16,6.54-17.93-0.49c-4.69-6.9-10.66-12.14-17.94-16.14c-8.12-4.46-12.49-9.58-17.72-19.91
			c-8.36,5.74-17.75,6.91-27.57,6.05c-7.72-0.68-15.15,0.38-22.47,3.06c-7.4,2.71-13.78-1.57-14.4-9.44
			c-0.73-9.27,3.07-16.51,10.7-21.6c5.17-3.45,10.62-6.48,16.51-10.04c-9.23-3.78-17.3-8.49-23.67-15.65
			c-1.28-1.44-2.48-0.42-3.57,0.07c-11.58,5.21-22.08,12.08-31.38,20.75c-1.16,1.08-1.75,2.2-1.68,3.89
			c1.07,26.94-9.26,49.39-27.31,68.74c-1.53,1.64-2.52,3.17-2.4,5.63c0.75,15.16,3.34,29.93,8.5,44.24
			c1.05,2.92,2.61,4.43,5.87,4.89c18.55,2.63,37.06,5.49,55.59,8.27c25.25,3.8,50.49,7.6,75.74,11.4c3.44,0.52,6.88,1.03,10.32,1.58
			c8.11,1.3,14.34,5.43,17.53,13.03c1.48,3.52,2.6,2.52,4.8,1.07c10.96-7.22,20.14-16.24,27.66-26.97c0.76-1.09,1.48-2.21,2.27-3.27
			c2.35-3.15,5.39-4.04,8.65-1.79c3.27,2.26,3.5,5.45,1.35,8.73c-7.07,10.78-15.59,20.26-25.81,28.15
			c-2.76,2.13-5.61,4.15-8.53,6.03c-5.23,3.37-10.41,6.36-14.16,11.91c-5.13,7.6-14.21,7.69-22.38,8.84
			c-25.61,3.61-51.24,7.16-76.86,10.7c-24.97,3.46-49.95,6.86-74.91,10.34c-24.8,3.46-49.59,6.99-74.38,10.47
			c-17.73,2.49-35.42,5.36-53.21,7.28c-13.13,1.41-24.63-4.01-35.23-11.27c-5.95-4.07-11.2-9.04-15-15.13
			c-2.06-3.3-3.79-2.9-6.68-1.69c-8.84,3.7-17.8,7.13-26.7,10.7c-10.23,4.11-18.12,2.82-23.43-3.89
			c-5.64-7.11-5.12-14.67,2.05-24.56c-2.08,0-3.8,0.01-5.52,0c-10.09-0.05-15.34-6.23-18.7-14.79
			C5.43,431.3,5.43,429.64,5.43,427.97z M333.91,215.26c-0.19-0.44-0.51-0.89-0.96-0.49c-0.2,0.18,0.01,0.81,0.03,1.24
			c1.4,5.03,3.94,9.47,7.23,13.47c7.49,9.12,17.54,13.96,28.76,16.57c4.63,1.08,8.22,2.99,8.5,8.19c0.27,5.01-3.15,7.3-7.28,8.88
			c-7.77,2.97-15.05,6.9-22.02,11.39c-3.35,2.15-6.25,4.78-6.48,9.62c9.4-3.11,18.59-4.01,28.12-2.87
			c8.74,1.05,16.33-1.94,22.28-8.64c1.86-2.1,4-3.5,6.97-2.62c3.12,0.92,4.31,3.2,4.73,6.29c1.33,9.59,6.59,16.45,15.04,20.97
			c5.17,2.76,9.81,6.23,13.83,10.48c2.11,2.23,4.09,4.57,6.17,6.9c2.6-4.27,1.41-8.02-0.09-11.81c-3.05-7.73-6.87-15.06-11.41-22
			c-2.41-3.68-3.32-7.39-0.49-11.03c3.01-3.87,6.92-3.77,11.2-1.92c8.34,3.62,17.08,5.35,26.19,4.51c8-0.74,15.28-3.38,22.57-9.5
			c-12.56-0.09-20.77-6.69-29.23-13.24c-7.81-6.04-17.04-7.75-26.87-6.3c-2.3,0.34-3.54,1.25-4.27,3.42
			c-1.21,3.6-2.43,7.23-4.07,10.64c-2.16,4.47-7.17,5.05-10.18,1.47c-2-2.38-1.64-4.86-0.51-7.44c8.46-19.35,10.07-39.71,8.7-60.45
			c-0.35-5.27-1.29-10.51-2.77-15.64c-0.73-2.5-1.77-3.21-4.28-2.26c-3.55,1.34-7.2,2.46-10.85,3.52c-1.65,0.48-2,1.01-1.41,2.78
			c7.31,21.85,4.3,43.95,1.26,66.01c-0.49,3.53-2.91,5.61-6.7,5.21c-3.82-0.4-5.54-2.84-5.26-6.52c0.29-3.8,0.62-7.63,1.39-11.35
			c0.63-3.04-0.75-4.6-2.97-6.1c-8.04-5.4-17.06-7.75-26.48-6.68C352.22,221.09,342.83,220.11,333.91,215.26z M182.51,339.52
			c2.67-13.37,3.37-25.96-3.14-37.83c-1.86-3.38-1.19-6.55,2.32-8.51c3.61-2.02,6.37-0.53,8.36,2.73c1.73,2.84,2.98,5.89,3.98,9.06
			c4.44,14.06,3.34,28.23,0.52,42.32c-0.67,3.33,0.06,5.18,2.27,7.31c6.34,6.11,12.98,12,18.62,18.72
			c3.51,4.18,7.26,6.13,12.42,6.39c2.47,0.13,4.93,0.65,7.36,1.16c2.54,0.54,3.45,0.2,3.14-2.87c-0.82-8.27-1-16.63-0.04-24.89
			c1.86-15.94,2.16-31.81-1.4-47.54c-5.87-25.94-19.52-45.41-45.76-54.17c-3.07-1.02-4.27-3.32-5.19-6.13
			c-2.23-6.78-5.14-13.27-9.22-19.17c-8.54-12.34-19.99-20.68-35.29-19.62c-9.8,0.68-15.13-2.3-21.13-9.92
			c-14.78-18.77-35.98-22.52-58.38-20.19c-19.02,1.98-32.28,14.62-36.13,33.17c-1.39,6.7-1.01,13.6-0.41,20.37
			c1.66,18.81,9.18,34.43,25.43,45.06c6.07,3.97,6.38,4.87,4.18,11.8c-5.77,18.14-1.39,34.26,12.23,44.78
			c5.57,4.3,11.87,7.28,18.52,9.39c3.35,1.07,5.3,3.01,6.48,6.21c3.05,8.26,7.22,15.95,11.93,23.38c1.65,2.61,2.81,3.41,6.04,1.81
			c9.36-4.63,19.49-6.89,29.91-5.81c11.7,1.22,23.3,3.32,34.94,5.06c7.9,1.18,15.79,2.4,23.69,3.6c0.26-0.43,0.51-0.86,0.77-1.29
			c-3.94-3.75-7.98-7.39-11.76-11.29c-1.79-1.84-3.23-2.45-5.98-1.82c-10.59,2.43-21.31,3.21-32.13,1.3
			c-10-1.77-19.04-5.57-26.78-12.23c-3.57-3.07-4.22-6.71-1.65-9.49c2.96-3.21,6.12-2.72,9.23-0.13c0.64,0.53,1.24,1.12,1.9,1.61
			c12.89,9.48,27.29,10.29,42.7,7.79c-0.54-0.91-0.72-1.38-1.04-1.74c-15.55-17.31-30.37-35.23-44.69-53.57
			c-1.5-1.92-2.99-2.18-5.1-1.88c-10.4,1.46-20.54,0.04-30.38-3.3c-10.28-3.49-18.9-9.52-25.63-18.13
			c-2.13-2.73-2.27-5.48,0.04-8.11c2.02-2.29,4.72-2.59,7.25-1.26c1.53,0.8,2.67,2.41,3.9,3.74c10.34,11.2,23.33,15.47,39.03,15.08
			c-1.72-2.3-2.97-3.99-4.24-5.66c-13.27-17.44-26.12-35.18-38.69-53.12c-3.2-4.57-3.12-8.26,0.06-10.49
			c3.26-2.29,6.67-1.1,9.88,3.39c7.72,10.8,15.38,21.64,23.2,32.37c6.01,8.24,12.22,16.32,19.1,25.49
			c2.02-12.96,3.57-24.47-2.26-35.6c-2.25-4.3-1.43-7.54,2.07-9.36c3.38-1.76,6.47-0.48,8.78,3.89c5.13,9.71,5.87,20.07,5.36,30.9
			c-0.39,8.15-6.57,16.19-2.93,23.78c3.49,7.29,9.93,13.21,15.24,19.59C163.43,317.02,172.99,328.25,182.51,339.52z M141.08,481.87
			c11.38-1.68,22.34-3.32,33.31-4.91c29.86-4.33,59.72-8.68,89.6-12.87c2.42-0.34,2.98-1.05,2.91-3.31
			c-0.16-4.98-0.07-9.97-0.04-14.96c0.02-5.44,1.9-7.97,5.91-8.05c4.14-0.09,6.1,2.35,6.15,7.75c0.04,4.15,0.21,8.32-0.05,12.46
			c-0.22,3.41,0.66,3.93,4.12,3.41c28.35-4.29,56.74-8.39,85.15-12.29c3.45-0.47,5.04-1.16,4.77-4.97
			c-0.26-3.81,1.22-6.99,5.69-7.28c4.41-0.29,6.47,2.41,6.58,6.38c0.08,2.85,1.12,3.19,3.57,2.82c10.33-1.54,20.7-2.82,31.02-4.43
			c6.77-1.06,10.55-5.18,10.35-10.66c-0.21-5.59-4.15-9.03-10.99-10.04c-14.43-2.12-28.83-4.4-43.25-6.6
			c-13.76-2.1-27.54-4.14-41.3-6.28c-2.96-0.46-4.67-0.1-4.31,3.61c0.34,3.46,0.21,6.98,0.02,10.46c-0.22,3.96-2.16,6.86-6.43,6.69
			c-3.93-0.15-5.8-2.94-5.93-6.71c-0.14-3.98-0.25-7.99,0.03-11.96c0.24-3.49-0.73-4.73-4.49-5.27
			c-27.56-3.96-55.07-8.26-82.6-12.42c-11.2-1.69-22.4-3.31-33.91-5.01c0,9.11,0.02,17.58-0.01,26.04
			c-0.02,5.09-2.27,7.95-6.15,7.92c-3.95-0.03-5.92-2.62-5.95-8.03c-0.04-8.14-0.1-16.29,0.04-24.43c0.05-2.68-0.7-3.62-3.53-4
			c-11.99-1.59-23.94-3.51-35.9-5.36c-20.12-3.12-36.47,3.53-49.55,18.9c-1.6,1.87-1.89,3.33-0.69,5.69
			c8.94,17.45,8.87,34.97-0.14,52.4c-0.79,1.53-1.52,2.75-0.18,4.49c7.92,10.23,18.14,16.8,30.69,19.81
			c2.44,0.59,3.52,0.12,3.46-2.8c-0.19-8.8-0.07-17.61-0.07-26.42c0-2.17-0.03-4.33,1.82-5.96c1.92-1.69,4.06-2.29,6.43-1.25
			c2.73,1.19,3.89,3.39,3.87,6.35C141.05,461.05,141.08,471.33,141.08,481.87z M213.09,207.89c1.11-3.89,2.02-7,2.89-10.13
			c5.6-20.06,11.58-40.01,17.96-59.84c0.83-2.56,1.61-5.21,4.56-6.04c2.13-0.6,4.35-0.54,6.06,1.19c2.05,2.08,2.36,4.37,1.44,7.27
			c-6.97,21.72-13.62,43.55-19.57,65.58c-0.31,1.17-1.26,2.34-0.06,3.54c12.84-5.59,20.43-12.21,26.22-23.23
			c2-3.81,4.96-5.07,8.58-3.28c3.48,1.72,4.05,4.95,2.47,8.51c-2.81,6.33-6.93,11.66-12.07,16.26
			c-7.89,7.07-16.99,12.08-26.82,15.82c-2.34,0.89-3.75,1.97-4.3,4.67c-1.23,5.99-2.95,11.88-4.46,17.81
			c-0.55,2.16-0.59,3.83,1.65,5.53c17.18,13.04,26.76,30.76,31.26,51.56c2.05,9.5,2.9,19.13,3.05,29.36
			c5.43-4.54,9.82-9.04,13.72-13.98c16.68-21.1,22.94-44.47,15.15-70.81c-0.82-2.79-0.23-5.15,1.41-7.48
			c3.73-5.3,6.9-10.94,9.13-17.04c6.64-18.2,4.2-34.57-10.23-48.29c-2.86-2.72-3.19-5.53-1.88-8.97c2.26-5.93,3.69-12.02,3.6-18.42
			c-0.28-21.78-10.41-38.8-26.51-52.35c-8.4-7.07-18.9-9.45-29.96-7.64c-18.43,3.02-30.6,15.08-40.89,29.32
			c-7.21,9.99-10.11,21.54-9.05,33.87c0.64,7.41,0.22,8.27-6.81,10.95c-13.23,5.03-23.14,13.31-27.06,27.58
			c-0.91,3.33-0.58,4.59,3.23,4.97c22.08,2.21,36.53,15,46.21,34.09c1.72,3.39,3.18,6.92,4.55,10.46c1.19,3.07,4.18,3.37,6.49,3.71
			c2.47,0.37,1.73-2.63,2.18-4.18c1.07-3.65,1.58-7.48,2.91-11.02c1.37-3.64,0.36-5.97-2.11-8.79
			c-13.54-15.5-20.62-33.08-16.17-54.01c1.17-5.53,3.78-7.68,7.85-6.69c3.57,0.87,5,4.18,4.03,9.36c-0.09,0.49-0.34,0.95-0.41,1.44
			C199.17,183.16,203.5,195.83,213.09,207.89z M442.55,87.32c-0.36-14.73-5.14-27.41-18.24-35.41c-15.4-9.41-30.97-8.09-45.98,1.15
			c-5.41,3.33-10.84,5.42-17.29,4.95c-5.21-0.38-9.26-3.33-13.74-5.37c-13.03-5.94-25.65-5.12-36.97,3.68
			c-10.32,8.03-14.19,19.26-11.35,31.93c3.03,13.52,11.73,22.42,25.32,25.88c6.34,1.61,12.85,2.21,18.41-2.59
			c7.34-6.33,12.22-5.26,15.65,3.7c4.04,10.54,11.38,17.65,21.82,21.71c3.56,1.38,7.22,2.29,11,2.9c7.16,1.14,9.6,5.92,6.61,12.55
			c-0.27,0.6-0.57,1.2-0.77,1.83c-1.1,3.5,0.06,6.73,2.12,9.31c1.92,2.41,4.11-0.27,6.15-0.73c2.09-0.47,4.08-1.36,6.15-1.92
			c8.97-2.43,13.74,0,16.99,8.82c2.36,6.4,3.63,13.06,3.98,19.88c0.11,2.11,0.36,3.7,3.13,2.66c12.1-4.57,21.65-11.65,24.03-25.32
			c2.4-13.78-2.48-25.03-12.64-34.22c-8.66-7.84-11.25-17.22-7.49-28.31C441.31,98.86,442.71,93.26,442.55,87.32z M306.1,193.36
			c3.76-5.46,6.27-11.04,8.35-16.8c2.67-7.43,2.59-7.39,10.44-5.72c2.71,0.58,3.77,1.4,2.82,4.51c-2.12,6.92-5.11,13.46-8.32,20.34
			c7.39-3.25,9.17-2.84,14.32,3.1c2.99,3.44,6.57,6.02,10.75,7.85c2.07,0.91,3.45,0.82,5.14-1.03c9.98-10.9,22.09-18.43,36.47-22.08
			c5.18-1.31,0.95-4.47,1.44-6.69c0.64-2.84-1.58-2.19-3.14-2.05c-6.12,0.54-12.23,1.18-18.36,1.66c-5.32,0.42-9.45-1.71-11.89-6.49
			c-2.39-4.68-1.32-9.04,2.05-12.86c2.86-3.24,5.95-6.28,8.7-9.61c0.91-1.09,4.33-2.51,0.74-4.27c-2.32-1.14-4.11-6.26-7.77-1.15
			c-4.06,5.66-8.63,10.96-13.01,16.39c-3.82,4.74-7.53,6.06-12.06,4.37c-4.74-1.77-6.95-5.47-6.75-11.49
			c0.18-5.32,0.53-10.63,0.64-15.94c0.17-8.04,0.06-7.86-7.73-10.07c-2.73-0.78-3.06-0.12-3.07,2.3c-0.07,18.1-5.1,34.94-13.13,51
			c-0.75,1.5-1.41,2.81-0.56,4.64C303.61,186.4,304.7,189.71,306.1,193.36z M55.41,435.26c0-0.36,0-0.72,0-1.08
			c10.12,0,20.24-0.14,30.35,0.08c3.26,0.07,3.78-1.19,3.83-4.01c0.05-3.02-0.94-3.97-3.98-4.02c-20.07-0.31-40.15-0.79-60.22-1.25
			c-3.66-0.09-6.47,1.21-6.58,5.08c-0.13,4.31,2.88,5.3,6.73,5.25C35.49,435.17,45.45,435.26,55.41,435.26z M293.95,247.64
			c9.1-7.43,18.57-13.7,29.02-18.41c0.98-0.44,2.12-0.82,1.25-2.53c-4.33-8.44-5.85-17.62-6.93-27.14
			c-3.33,5.73-9.94,9.02-11.23,15.88c-1.84,9.72-5.72,18.55-10.69,27C294.58,243.78,292.99,244.9,293.95,247.64z M67.38,414.01
			c2.47,0,3.8-0.01,5.12,0c3.28,0.02,2.35-3.09,3.4-4.7c0.84-1.29,0.01-1.95-1.32-2.48c-10.58-4.19-21.09-8.56-31.72-12.62
			c-2.73-1.04-5.43-0.03-6.42,3.03c-0.92,2.84-0.06,5.33,2.85,6.58c5.76,2.49,11.59,4.78,17.34,7.28
			C60.45,412.77,64.2,414.52,67.38,414.01z M69.18,446.83c-3.24,0.12-5.66-0.08-8.08,0.95c-6.67,2.85-13.42,5.5-20.18,8.14
			c-3.53,1.38-5.97,3.61-4.37,7.49c1.61,3.93,4.96,3.59,8.39,2.18c9.46-3.88,18.95-7.65,28.42-11.52c1.2-0.49,3.45-0.43,2.49-2.69
			c-0.79-1.87-0.35-5.04-3.98-4.58C70.73,446.96,69.55,446.83,69.18,446.83z M365.31,207.49c10.44,0.26,19.25,2.69,27.81,7.22
			c0.75-6.55-0.29-12.45-0.54-18.37c-0.09-2.2-1.22-1.76-2.63-1.37C381.26,197.35,373.29,201.12,365.31,207.49z M254.75,346.44
			c-2.13,1.39-3.78,2.2-4,4.66c-0.61,6.95-1.23,13.89-0.68,20.88c0.88,11.12,0.89,11.12,11.85,12.85c0.19,0.03,0.45-0.34,0.76-0.6
			C258.3,372.2,256.49,359.59,254.75,346.44z M338.92,146.26c3.94-4.87,7.16-9.43,10.99-13.4c3.03-3.15,0.98-5.37-0.54-7.77
			c-0.4-0.63-0.39-3.01-2.13-1.56c-2.56,2.12-7.68,0.96-8.16,5.19C338.44,134.2,338.92,139.82,338.92,146.26z M385.22,162.49
			c-0.86-3.03-0.63-5.81-0.61-8.6c0.01-1.2,0.82-2.95-1.24-3.13c-1.53-0.13-3.08-1.91-4.62-0.25c-3.86,4.15-7.65,8.37-12.38,13.55
			C373.56,163.46,379.28,162.99,385.22,162.49z"/>
		<path class="st0" d="M182.51,339.52c-9.51-11.27-19.08-22.49-28.52-33.82c-5.31-6.38-11.75-12.29-15.24-19.59
			c-3.63-7.59,2.55-15.63,2.93-23.78c0.51-10.82-0.23-21.19-5.36-30.9c-2.31-4.37-5.39-5.65-8.78-3.89
			c-3.5,1.82-4.33,5.06-2.07,9.36c5.83,11.13,4.29,22.64,2.26,35.6c-6.88-9.16-13.09-17.25-19.1-25.49
			c-7.82-10.73-15.48-21.57-23.2-32.37c-3.21-4.49-6.62-5.68-9.88-3.39c-3.18,2.23-3.26,5.92-0.06,10.49
			c12.57,17.95,25.43,35.68,38.69,53.12c1.27,1.67,2.52,3.36,4.24,5.66c-15.7,0.39-28.69-3.88-39.03-15.08
			c-1.23-1.33-2.36-2.94-3.9-3.74c-2.54-1.33-5.23-1.04-7.25,1.26c-2.31,2.62-2.17,5.38-0.04,8.11
			c6.73,8.61,15.35,14.64,25.63,18.13c9.84,3.34,19.99,4.76,30.38,3.3c2.11-0.3,3.61-0.03,5.1,1.88
			c14.32,18.34,29.13,36.26,44.69,53.57c0.32,0.35,0.5,0.82,1.04,1.74c-15.4,2.5-29.8,1.69-42.7-7.79c-0.67-0.49-1.27-1.08-1.9-1.61
			c-3.11-2.59-6.27-3.08-9.23,0.13c-2.57,2.78-1.92,6.42,1.65,9.49c7.74,6.66,16.78,10.46,26.78,12.23
			c10.82,1.91,21.54,1.13,32.13-1.3c2.75-0.63,4.19-0.02,5.98,1.82c3.78,3.9,7.83,7.54,11.76,11.29c-0.26,0.43-0.51,0.86-0.77,1.29
			c-7.9-1.2-15.79-2.42-23.69-3.6c-11.64-1.74-23.24-3.85-34.94-5.06c-10.41-1.08-20.54,1.18-29.91,5.81
			c-3.23,1.6-4.38,0.8-6.04-1.81c-4.72-7.43-8.88-15.12-11.93-23.38c-1.18-3.2-3.13-5.14-6.48-6.21c-6.65-2.12-12.96-5.1-18.52-9.39
			c-13.63-10.52-18.01-26.64-12.23-44.78c2.21-6.93,1.89-7.83-4.18-11.8c-16.25-10.64-23.77-26.26-25.43-45.06
			c-0.6-6.78-0.98-13.67,0.41-20.37c3.85-18.55,17.11-31.19,36.13-33.17c22.4-2.33,43.61,1.42,58.38,20.19
			c6,7.62,11.33,10.6,21.13,9.92c15.3-1.06,26.76,7.27,35.29,19.62c4.08,5.89,6.99,12.38,9.22,19.17c0.92,2.8,2.12,5.1,5.19,6.13
			c26.24,8.76,39.89,28.23,45.76,54.17c3.56,15.74,3.25,31.6,1.4,47.54c-0.96,8.26-0.79,16.61,0.04,24.89
			c0.31,3.07-0.6,3.42-3.14,2.87c-2.43-0.52-4.89-1.04-7.36-1.16c-5.16-0.26-8.91-2.21-12.42-6.39
			c-5.64-6.72-12.27-12.61-18.62-18.72c-2.21-2.13-2.93-3.98-2.27-7.31c2.82-14.09,3.92-28.26-0.52-42.32
			c-1-3.17-2.25-6.22-3.98-9.06c-1.99-3.26-4.74-4.75-8.36-2.73c-3.51,1.96-4.18,5.13-2.32,8.51
			C185.87,313.56,185.18,326.15,182.51,339.52z"/>
		<path class="st0" d="M141.08,481.87c0-10.54-0.02-20.82,0.02-31.1c0.01-2.97-1.15-5.16-3.87-6.35c-2.37-1.03-4.52-0.44-6.43,1.25
			c-1.85,1.63-1.82,3.79-1.82,5.96c0,8.81-0.12,17.62,0.07,26.42c0.06,2.92-1.02,3.38-3.46,2.8c-12.55-3.01-22.77-9.59-30.69-19.81
			c-1.35-1.74-0.61-2.96,0.18-4.49c9.01-17.43,9.09-34.95,0.14-52.4c-1.21-2.36-0.91-3.81,0.69-5.69
			c13.08-15.37,29.43-22.02,49.55-18.9c11.96,1.85,23.91,3.77,35.9,5.36c2.83,0.38,3.58,1.32,3.53,4
			c-0.14,8.14-0.08,16.29-0.04,24.43c0.03,5.41,2,8.01,5.95,8.03c3.88,0.03,6.13-2.83,6.15-7.92c0.03-8.46,0.01-16.93,0.01-26.04
			c11.51,1.7,22.72,3.31,33.91,5.01c27.53,4.16,55.04,8.47,82.6,12.42c3.75,0.54,4.73,1.78,4.49,5.27
			c-0.28,3.97-0.16,7.98-0.03,11.96c0.13,3.77,2.01,6.55,5.93,6.71c4.27,0.17,6.21-2.73,6.43-6.69c0.19-3.48,0.32-7-0.02-10.46
			c-0.36-3.71,1.35-4.07,4.31-3.61c13.76,2.13,27.53,4.18,41.3,6.28c14.42,2.2,28.82,4.48,43.25,6.6
			c6.84,1.01,10.78,4.45,10.99,10.04c0.2,5.48-3.58,9.61-10.35,10.66c-10.32,1.61-20.69,2.89-31.02,4.43
			c-2.45,0.37-3.49,0.03-3.57-2.82c-0.11-3.96-2.17-6.67-6.58-6.38c-4.47,0.3-5.96,3.47-5.69,7.28c0.27,3.82-1.32,4.5-4.77,4.97
			c-28.41,3.91-56.8,8-85.15,12.29c-3.46,0.52-4.34,0-4.12-3.41c0.26-4.14,0.1-8.31,0.05-12.46c-0.06-5.4-2.02-7.84-6.15-7.75
			c-4.02,0.09-5.89,2.61-5.91,8.05c-0.02,4.99-0.11,9.97,0.04,14.96c0.07,2.25-0.49,2.97-2.91,3.31
			c-29.88,4.18-59.74,8.54-89.6,12.87C163.42,478.55,152.46,480.19,141.08,481.87z M235.14,434.32c-0.01,0-0.01,0-0.02,0
			c0-3.99,0.07-7.98-0.02-11.96c-0.09-3.91-2.04-6.36-6.1-6.29c-4.05,0.06-5.94,2.65-5.99,6.48c-0.1,7.81-0.06,15.62-0.02,23.43
			c0.02,3.94,2.2,6.52,5.97,6.61c4.12,0.1,6.21-2.61,6.19-6.79C235.13,441.97,235.14,438.14,235.14,434.32z"/>
		<path class="st0" d="M213.09,207.89c-9.59-12.06-13.92-24.73-11.74-39.35c0.07-0.49,0.32-0.95,0.41-1.44
			c0.98-5.18-0.45-8.49-4.03-9.36c-4.07-0.99-6.68,1.16-7.85,6.69c-4.44,20.94,2.64,38.51,16.17,54.01
			c2.46,2.82,3.48,5.15,2.11,8.79c-1.33,3.54-1.84,7.37-2.91,11.02c-0.45,1.55,0.29,4.55-2.18,4.18c-2.31-0.34-5.3-0.64-6.49-3.71
			c-1.37-3.54-2.83-7.07-4.55-10.46c-9.68-19.09-24.13-31.88-46.21-34.09c-3.81-0.38-4.14-1.64-3.23-4.97
			c3.92-14.27,13.83-22.55,27.06-27.58c7.03-2.68,7.45-3.54,6.81-10.95c-1.07-12.33,1.84-23.89,9.05-33.87
			c10.28-14.24,22.46-26.3,40.89-29.32c11.06-1.81,21.56,0.57,29.96,7.64c16.09,13.55,26.22,30.57,26.51,52.35
			c0.08,6.4-1.35,12.5-3.6,18.42c-1.31,3.44-0.97,6.26,1.88,8.97c14.43,13.72,16.87,30.09,10.23,48.29
			c-2.22,6.1-5.4,11.73-9.13,17.04c-1.64,2.34-2.23,4.7-1.41,7.48c7.79,26.34,1.53,49.72-15.15,70.81
			c-3.9,4.93-8.29,9.44-13.72,13.98c-0.15-10.24-1-19.87-3.05-29.36c-4.49-20.8-14.07-38.51-31.26-51.56
			c-2.24-1.7-2.2-3.37-1.65-5.53c1.51-5.93,3.23-11.82,4.46-17.81c0.55-2.7,1.96-3.78,4.3-4.67c9.83-3.74,18.93-8.75,26.82-15.82
			c5.14-4.6,9.26-9.94,12.07-16.26c1.58-3.56,1.01-6.79-2.47-8.51c-3.63-1.79-6.58-0.53-8.58,3.28
			c-5.79,11.02-13.39,17.64-26.22,23.23c-1.19-1.2-0.25-2.38,0.06-3.54c5.94-22.03,12.6-43.85,19.57-65.58
			c0.93-2.9,0.62-5.19-1.44-7.27c-1.71-1.73-3.93-1.8-6.06-1.19c-2.95,0.83-3.74,3.48-4.56,6.04
			c-6.38,19.83-12.36,39.78-17.96,59.84C215.11,200.88,214.2,204,213.09,207.89z"/>
		<path class="st0" d="M442.55,87.32c0.16,5.93-1.24,11.54-3.11,17.05c-3.76,11.09-1.17,20.47,7.49,28.31
			c10.16,9.19,15.04,20.45,12.64,34.22c-2.38,13.68-11.93,20.75-24.03,25.32c-2.76,1.04-3.02-0.55-3.13-2.66
			c-0.35-6.81-1.62-13.48-3.98-19.88c-3.25-8.82-8.02-11.25-16.99-8.82c-2.07,0.56-4.06,1.46-6.15,1.92
			c-2.04,0.46-4.23,3.14-6.15,0.73c-2.06-2.59-3.22-5.81-2.12-9.31c0.2-0.63,0.5-1.23,0.77-1.83c2.99-6.62,0.55-11.4-6.61-12.55
			c-3.78-0.6-7.44-1.51-11-2.9c-10.45-4.06-17.79-11.17-21.82-21.71c-3.43-8.95-8.31-10.03-15.65-3.7
			c-5.56,4.8-12.07,4.2-18.41,2.59c-13.59-3.45-22.29-12.36-25.32-25.88c-2.84-12.67,1.03-23.9,11.35-31.93
			c11.32-8.81,23.94-9.62,36.97-3.68c4.48,2.04,8.53,4.99,13.74,5.37c6.45,0.47,11.88-1.61,17.29-4.95
			c15.01-9.24,30.58-10.55,45.98-1.15C437.41,59.91,442.19,72.59,442.55,87.32z"/>
		<path class="st0" d="M333.91,215.26c8.92,4.85,18.31,5.83,28.38,4.68c9.42-1.07,18.44,1.27,26.48,6.68
			c2.22,1.49,3.6,3.06,2.97,6.1c-0.77,3.72-1.1,7.55-1.39,11.35c-0.28,3.69,1.44,6.12,5.26,6.52c3.79,0.4,6.22-1.68,6.7-5.21
			c3.04-22.06,6.05-44.16-1.26-66.01c-0.59-1.77-0.25-2.3,1.41-2.78c3.65-1.06,7.29-2.18,10.85-3.52c2.51-0.94,3.55-0.23,4.28,2.26
			c1.49,5.13,2.43,10.37,2.77,15.64c1.37,20.74-0.24,41.11-8.7,60.45c-1.13,2.58-1.49,5.07,0.51,7.44c3.01,3.58,8.02,3,10.18-1.47
			c1.65-3.41,2.86-7.04,4.07-10.64c0.73-2.17,1.98-3.08,4.27-3.42c9.83-1.45,19.07,0.26,26.87,6.3
			c8.46,6.54,16.66,13.15,29.23,13.24c-7.29,6.13-14.57,8.76-22.57,9.5c-9.11,0.84-17.85-0.9-26.19-4.51
			c-4.27-1.85-8.19-1.95-11.2,1.92c-2.83,3.64-1.92,7.34,0.49,11.03c4.54,6.94,8.36,14.27,11.41,22c1.5,3.79,2.69,7.54,0.09,11.81
			c-2.08-2.34-4.07-4.68-6.17-6.9c-4.03-4.25-8.67-7.72-13.83-10.48c-8.45-4.52-13.71-11.38-15.04-20.97
			c-0.43-3.08-1.61-5.37-4.73-6.29c-2.97-0.87-5.11,0.52-6.97,2.62c-5.94,6.71-13.54,9.69-22.28,8.64
			c-9.53-1.15-18.72-0.24-28.12,2.87c0.24-4.84,3.14-7.47,6.48-9.62c6.97-4.49,14.25-8.42,22.02-11.39
			c4.13-1.58,7.55-3.87,7.28-8.88c-0.28-5.21-3.87-7.12-8.5-8.19c-11.22-2.61-21.27-7.44-28.76-16.57c-3.28-4-5.83-8.44-7.23-13.47
			C333.29,215.76,333.6,215.51,333.91,215.26z"/>
		<path class="st0" d="M306.1,193.36c-1.4-3.64-2.48-6.95-3.94-10.09c-0.85-1.84-0.18-3.15,0.56-4.64
			c8.03-16.06,13.05-32.9,13.13-51c0.01-2.42,0.34-3.07,3.07-2.3c7.79,2.21,7.9,2.04,7.73,10.07c-0.11,5.32-0.46,10.63-0.64,15.94
			c-0.2,6.02,2.01,9.72,6.75,11.49c4.53,1.69,8.24,0.37,12.06-4.37c4.38-5.43,8.96-10.72,13.01-16.39c3.66-5.11,5.44,0.01,7.77,1.15
			c3.59,1.76,0.17,3.18-0.74,4.27c-2.75,3.32-5.84,6.37-8.7,9.61c-3.37,3.82-4.44,8.18-2.05,12.86c2.44,4.77,6.57,6.91,11.89,6.49
			c6.13-0.48,12.24-1.12,18.36-1.66c1.56-0.14,3.78-0.79,3.14,2.05c-0.5,2.22,3.74,5.38-1.44,6.69
			c-14.38,3.65-26.49,11.18-36.47,22.08c-1.69,1.85-3.06,1.94-5.14,1.03c-4.18-1.84-7.76-4.41-10.75-7.85
			c-5.15-5.94-6.93-6.34-14.32-3.1c3.21-6.87,6.2-13.42,8.32-20.34c0.95-3.11-0.11-3.94-2.82-4.51c-7.85-1.67-7.77-1.71-10.44,5.72
			C312.37,182.32,309.86,187.89,306.1,193.36z"/>
		<path class="st2" d="M55.41,435.26c-9.96,0-19.91-0.09-29.87,0.04c-3.85,0.05-6.86-0.94-6.73-5.25c0.11-3.87,2.92-5.16,6.58-5.08
			c20.07,0.47,40.14,0.94,60.22,1.25c3.04,0.05,4.03,1,3.98,4.02c-0.04,2.82-0.57,4.08-3.83,4.01c-10.11-0.22-20.23-0.08-30.35-0.08
			C55.41,434.54,55.41,434.9,55.41,435.26z"/>
		<path class="st2" d="M293.95,247.64c-0.96-2.74,0.63-3.86,1.41-5.19c4.97-8.45,8.86-17.28,10.69-27
			c1.3-6.86,7.91-10.16,11.23-15.88c1.08,9.52,2.6,18.7,6.93,27.14c0.88,1.71-0.27,2.09-1.25,2.53
			C312.52,233.94,303.05,240.22,293.95,247.64z"/>
		<path class="st2" d="M67.38,414.01c-3.18,0.51-6.93-1.24-10.75-2.9c-5.75-2.5-11.59-4.8-17.34-7.28
			c-2.91-1.26-3.77-3.75-2.85-6.58c1-3.06,3.7-4.08,6.42-3.03c10.63,4.06,21.14,8.44,31.72,12.62c1.32,0.52,2.16,1.18,1.32,2.48
			c-1.05,1.61-0.12,4.71-3.4,4.7C71.18,414,69.85,414.01,67.38,414.01z"/>
		<path class="st2" d="M69.18,446.83c0.37,0,1.55,0.12,2.69-0.02c3.64-0.46,3.19,2.71,3.98,4.58c0.96,2.26-1.29,2.2-2.49,2.69
			c-9.46,3.86-18.96,7.64-28.42,11.52c-3.43,1.4-6.78,1.75-8.39-2.18c-1.59-3.88,0.85-6.12,4.37-7.49
			c6.76-2.64,13.51-5.29,20.18-8.14C63.52,446.75,65.94,446.95,69.18,446.83z"/>
		<path class="st2" d="M365.31,207.49c7.98-6.37,15.94-10.15,24.64-12.52c1.41-0.39,2.54-0.83,2.63,1.37
			c0.25,5.92,1.29,11.81,0.54,18.37C384.56,210.19,375.75,207.75,365.31,207.49z"/>
		<path class="st2" d="M254.75,346.44c1.73,13.15,3.55,25.76,7.94,37.8c-0.31,0.26-0.57,0.63-0.76,0.6
			c-10.97-1.73-10.97-1.73-11.85-12.85c-0.56-6.99,0.06-13.93,0.68-20.88C250.97,348.64,252.62,347.83,254.75,346.44z"/>
		<path class="st2" d="M338.92,146.26c0-6.44-0.47-12.06,0.15-17.55c0.48-4.23,5.61-3.07,8.16-5.19c1.74-1.45,1.73,0.94,2.13,1.56
			c1.52,2.4,3.57,4.62,0.54,7.77C346.08,136.84,342.86,141.39,338.92,146.26z"/>
		<path class="st2" d="M385.22,162.49c-5.94,0.5-11.66,0.98-18.85,1.58c4.72-5.18,8.52-9.4,12.38-13.55
			c1.54-1.66,3.09,0.12,4.62,0.25c2.06,0.18,1.25,1.93,1.24,3.13C384.59,156.68,384.36,159.46,385.22,162.49z"/>
		<path class="st0" d="M332.98,216c-0.02-0.43-0.23-1.06-0.03-1.24c0.46-0.4,0.77,0.05,0.96,0.49
			C333.6,215.51,333.29,215.76,332.98,216z"/>
		<path class="st1" d="M235.14,434.32c0,3.82-0.01,7.64,0,11.47c0.02,4.18-2.07,6.89-6.19,6.79c-3.77-0.09-5.95-2.67-5.97-6.61
			c-0.04-7.81-0.08-15.62,0.02-23.43c0.05-3.82,1.94-6.42,5.99-6.48c4.05-0.06,6.01,2.38,6.1,6.29c0.09,3.99,0.02,7.98,0.02,11.96
			C235.13,434.32,235.14,434.32,235.14,434.32z"/>
	</g>
</g>
</svg>
